<svg width="699" height="508" viewBox="0 0 699 508" fill="none" xmlns="http://www.w3.org/2000/svg">
<path fill-rule="evenodd" clip-rule="evenodd" d="M696.926 192.093C688.285 256.432 678.531 290.418 621.602 357.796C564.673 425.175 304.161 469.5 207.85 469.5C111.539 469.5 -7.1535 395.333 0.337526 309.398C7.82855 223.464 46.9103 153.227 140.454 144.581C236.051 135.745 320.025 176.663 413.879 154.718C495.02 135.745 519.846 63.4264 575.576 40.6103C688.285 -5.53368 702.804 148.323 696.926 192.093Z" fill="#CAB6EC"/>
<path d="M638.94 223.516C635.756 228.906 595.446 256.18 570.994 260.217C566.263 260.998 561.096 261.266 556.986 258.799C554.558 257.341 552.748 255.068 551.03 252.819C547.1 247.677 543.352 242.398 539.793 236.993C537.923 234.153 536.068 231.188 535.433 227.849C533.75 219.006 540.888 211.063 547.942 205.461C564.157 192.581 583.143 183.198 603.231 178.136C606.787 177.24 610.558 176.482 614.081 177.499C619.799 179.151 623.218 184.929 625.399 190.46C627.581 195.991 629.283 202.04 633.643 206.086C634.639 207.01 642.124 218.126 638.94 223.516Z" fill="white"/>
<path fill-rule="evenodd" clip-rule="evenodd" d="M422.342 458.49C383.22 465.172 401.866 436.776 407.261 401.234C416.126 342.834 427.058 254.084 427.058 254.084C427.058 254.084 434.187 389.317 434.187 422.246C434.187 455.174 427.057 457.685 422.342 458.49Z" fill="white"/>
<path d="M380.541 426.315C381.539 435.719 382.592 445.323 386.594 453.894C384.41 434.485 382.227 415.076 380.044 395.668C379.774 393.271 379.854 390.22 382.062 389.243C383.93 411.159 386.715 432.997 390.408 454.681C390.846 457.255 386.974 458.726 384.8 457.276C382.625 455.826 381.93 453.003 381.435 450.438C377.832 431.753 375.85 412.756 375.521 393.73C370.933 394.633 367.716 399.074 366.788 403.651C365.86 408.228 366.755 412.954 367.648 417.538C370.525 432.291 373.403 447.044 376.28 461.798C377.625 468.698 378.971 475.828 377.486 482.7C371.776 456.665 367.185 430.384 363.731 403.956C319.917 430.712 263.462 435.688 215.633 417.008C205.187 412.928 194.813 407.522 187.913 398.691C182.478 391.733 179.578 383.096 178.058 374.403C172.662 343.532 183.72 312.042 198.729 284.52C204.424 274.078 210.91 263.201 210.45 251.319C210.292 247.228 209.409 242.699 211.801 239.374C212.14 239.99 196.141 125.702 202.559 100.422C218.01 39.5626 268.201 31.3205 300.337 32.0711C321.899 32.5748 458.574 59.7003 478.32 96.5879C504.274 145.069 498.763 185.829 494.154 212.705C492.782 220.708 427.076 253.494 427.058 253.66C423.302 288.533 398.094 364.522 376.953 392.531C378.149 403.793 379.345 415.054 380.541 426.315Z" fill="white"/>
<path fill-rule="evenodd" clip-rule="evenodd" d="M65.0617 284.416C52.7396 279.504 38.0553 280.961 26.9461 288.197C25.8706 288.898 24.3244 288.117 23.7919 286.952C23.2595 285.786 23.4587 284.43 23.731 283.178C27.2791 266.872 41.4134 254.396 57.1321 248.662C72.8508 242.928 90.0444 242.912 106.753 243.892C108.411 243.99 110.144 244.119 111.559 244.987C112.973 245.855 113.924 247.711 113.219 249.21C106.647 263.188 101.695 277.923 98.4956 293.027C97.9768 295.476 95.4355 297.101 92.9327 297.305C90.4299 297.51 87.9776 296.587 85.7063 295.52C78.6277 292.193 72.3282 287.313 65.0617 284.416" fill="white"/>
<path fill-rule="evenodd" clip-rule="evenodd" d="M443.807 38.2601C444.419 28.9062 443.713 19.4673 441.716 10.308L441.674 10.1128L441.674 10.1125C441.335 8.56387 440.986 6.97094 441.299 5.42105C441.989 1.99316 445.802 -0.070141 449.302 0.00182272C452.803 0.0737865 456.045 1.74256 459.143 3.37226C473.999 11.1877 489.122 19.2004 500.819 31.2312C501.186 40.9712 498.887 50.5829 496.618 60.0715L496.405 60.963C486.933 100.621 479.176 140.688 473.164 181.014C472.588 184.879 471.495 189.439 467.824 190.793C465.191 191.764 462.129 190.523 460.259 188.433C458.388 186.343 457.494 183.567 456.87 180.834C455.331 174.091 455.145 167.042 456.328 160.227C457.051 156.06 458.274 152.006 459.497 147.951L459.497 147.951L459.497 147.951L459.497 147.95L459.497 147.95L459.497 147.949L459.498 147.949L459.498 147.949C460.595 144.309 461.693 140.669 462.431 136.945C463.168 133.22 463.54 129.433 463.9 125.653C465.817 105.553 467.443 85.4255 468.778 65.2784C468.967 62.4313 469.138 59.4948 468.205 56.7983C466.544 52.0023 461.705 48.9709 456.818 47.581C455.976 47.3415 455.12 47.1377 454.265 46.934C452.273 46.4599 450.283 45.9861 448.467 45.0618C445.87 43.7406 443.617 41.1645 443.807 38.2601ZM452.884 37.4914C459.793 38.9472 466.544 41.1455 472.984 44.0362C474.281 44.6182 475.644 45.2995 476.345 46.5349C476.917 47.5438 476.95 48.7589 476.967 49.9183C477.169 63.5355 477.212 77.1886 475.768 90.7307C474.903 98.8393 473.509 106.877 472.114 114.914L472.114 114.916L472.113 114.922L472.112 114.928L472.111 114.933L472.11 114.938L472.109 114.943L472.109 114.947L472.108 114.952C471.669 117.484 471.229 120.016 470.807 122.55C468.706 135.149 467.015 147.817 465.737 160.526C464.81 169.747 464.131 179.278 467.004 188.091C468.477 187.822 469.044 186.05 469.324 184.58L495.867 44.8587C496.51 41.4734 497.153 37.9734 496.395 34.6118C495.069 28.7266 489.838 24.6344 484.795 21.314C475.086 14.922 464.752 9.47808 453.988 5.08495C453.093 15.8606 452.724 26.6799 452.884 37.4914ZM466.535 129.254C471.395 104.336 473.59 78.9016 473.072 53.5211C473.033 51.6042 472.93 49.5442 471.756 48.0271C470.896 46.9155 469.581 46.2644 468.297 45.69C463.475 43.5331 458.406 41.9282 453.221 40.9166C451.72 40.6238 449.514 40.9411 449.579 42.4669L468.217 50.1583C469.311 50.6094 470.475 51.1196 471.093 52.1271C471.699 53.1151 471.64 54.3563 471.561 55.5122L466.535 129.254ZM449.191 2.62022C447.655 1.60298 445.434 2.65158 444.579 4.28213C443.723 5.91268 443.853 7.86468 444.047 9.69545C444.332 12.3816 444.706 15.0691 445.081 17.757C446.121 25.2143 447.161 32.6746 446.277 40.1164C447.687 40.5994 449.26 39.6074 449.944 38.285C450.628 36.9626 450.645 35.4094 450.648 33.9211L450.695 7.08499C450.698 5.44485 450.56 3.52649 449.191 2.62022ZM462.992 187.485C462.145 180.854 461.923 174.142 462.33 167.469C462.548 163.901 462.944 160.345 463.34 156.79L463.34 156.789C463.865 152.088 464.389 147.388 464.498 142.662C460.627 154.168 459.166 166.476 460.234 178.567C460.512 181.713 461.028 185.011 462.992 187.485ZM465.122 135.865C465.745 135.586 466.006 134.712 465.639 134.138C465.006 134.449 464.738 135.331 465.089 135.942L465.122 135.865ZM459.334 78.2378C428.528 59.2646 393.694 47.897 358.859 38.0881C347.724 34.9525 336.495 31.9478 324.997 30.6614C290.928 26.8498 256.39 38.5888 228.062 57.8702C216.701 65.6031 205.74 75.115 200.831 87.9407C197.189 97.4569 197.215 107.933 197.566 118.115C198.777 153.23 203.289 188.138 207.795 222.984C211.319 222.349 211.667 217.483 211.156 213.944C206.471 181.447 203.843 148.655 203.295 115.827C203.142 106.622 203.19 97.185 206.38 88.5473C212.154 72.9111 227.047 62.685 241.66 54.6374C260.067 44.5011 280.075 35.9804 301.089 35.5281C326.544 34.9802 350.671 46.2564 372.908 58.6406C385.304 65.5449 397.874 73.2548 405.76 85.0409C412.921 95.7428 415.523 108.786 417.402 121.519C423.366 161.935 423.584 202.949 423.791 243.801C423.8 245.453 423.698 247.347 422.402 248.374C421.516 249.077 420.305 249.164 419.175 249.223L377.647 251.382C396.999 256.938 418.465 254.747 436.291 245.395L482.434 221.187C486.74 218.927 491.186 216.554 494.154 212.705C498.239 207.408 498.824 200.282 499.017 193.598C499.729 168.915 497.257 144.142 491.683 120.083C493.615 146.109 493.883 172.257 492.485 198.316C492.246 202.766 491.889 207.435 489.466 211.177C486.877 215.175 482.378 217.438 478.091 219.519L428.293 243.69C430.354 205.05 428.755 166.215 423.525 127.874C421.766 114.978 419.522 101.902 413.613 90.3023C399.648 62.8891 368.737 49.3286 340.169 37.8381C382.88 50.3171 426.079 63.0023 464.504 85.4202C465.003 82.3231 462.007 79.8844 459.334 78.2378ZM618.48 196.189C620.694 201.888 623.807 207.962 629.528 210.134C630.883 210.239 631.693 208.444 631.248 207.161C630.877 206.09 630.003 205.31 629.145 204.543L629.14 204.539L628.987 204.401C628.941 204.36 628.895 204.319 628.849 204.277C628.78 204.215 628.711 204.152 628.643 204.089C625.003 200.711 623.215 195.937 621.455 191.233C621.107 190.303 620.76 189.376 620.399 188.463C618.218 182.932 614.799 177.154 609.081 175.502C605.558 174.484 601.787 175.243 598.231 176.139C578.142 181.201 559.157 190.584 542.942 203.463C535.888 209.066 528.75 217.009 530.433 225.852C531.068 229.191 532.923 232.156 534.793 234.996C538.351 240.4 542.1 245.68 546.03 250.822C547.748 253.071 549.558 255.344 551.986 256.801C556.096 259.269 561.263 259.001 565.994 258.219C590.446 254.183 611.374 239.007 631.288 224.274C632.325 223.507 633.403 222.69 633.94 221.519C634.477 220.347 634.248 218.718 633.109 218.114C631.803 217.421 630.263 218.378 629.098 219.288C610.567 233.777 590.771 247.936 567.794 253.026C563.438 253.991 558.638 254.559 554.719 252.429C551.786 250.836 549.806 247.971 547.937 245.209L536.345 228.081C535.369 226.638 534.357 225.088 534.321 223.347C534.285 221.606 535.693 219.723 537.422 219.948C553.67 222.058 569.995 223.575 586.354 224.494C587.656 224.567 589.018 224.626 590.205 224.085C591.733 223.388 592.665 221.844 593.48 220.377C600.406 207.909 605.696 194.536 609.173 180.707C613.796 184.017 615.953 189.624 618.011 194.973L618.212 195.495C618.301 195.727 618.391 195.959 618.48 196.189ZM604.18 179.612C601.084 191.178 596.505 202.346 590.589 212.757C589.598 214.503 588.497 216.3 586.763 217.314C584.556 218.604 581.811 218.361 579.27 218.078L538.798 213.568C545.513 204.706 555.488 198.955 565.455 194.014C574.889 189.336 584.575 185.164 594.456 181.52C597.584 180.366 600.865 179.249 604.18 179.612ZM380.541 426.315C381.539 435.719 382.592 445.323 386.594 453.894L380.043 395.668C379.774 393.271 379.854 390.22 382.061 389.243C383.93 411.159 386.715 432.997 390.408 454.681C390.846 457.255 386.974 458.726 384.799 457.276C382.625 455.826 381.929 453.003 381.435 450.438C377.831 431.753 375.85 412.756 375.521 393.73C370.933 394.633 367.716 399.074 366.788 403.651C365.86 408.228 366.754 412.954 367.648 417.538L376.279 461.798C377.625 468.698 378.971 475.828 377.486 482.7C371.776 456.665 367.185 430.384 363.731 403.956C319.917 430.712 263.462 435.688 215.633 417.008C205.187 412.928 194.812 407.522 187.913 398.691C182.478 391.733 179.578 383.096 178.058 374.403C172.662 343.532 183.72 312.042 198.729 284.52C199.108 283.825 199.491 283.128 199.875 282.429L199.886 282.408L199.902 282.379L199.911 282.363C205.282 272.579 210.878 262.386 210.45 251.319C210.422 250.588 210.37 249.843 210.319 249.093C210.081 245.648 209.836 242.105 211.801 239.374C214.436 244.161 215.439 249.826 214.609 255.225C259.968 253.275 305.394 252.883 350.78 254.048C351.309 256.132 348.286 257.1 346.134 257.068C303.779 256.437 261.403 257.158 219.094 259.228C217.755 259.294 216.348 259.381 215.212 260.094C214.017 260.843 213.321 262.158 212.679 263.413C200.671 286.876 188.624 310.682 182.82 336.387C179.835 349.605 178.692 364.073 184.809 376.168C187.13 380.757 190.412 384.809 194.077 388.419C213.751 407.799 243.212 413.741 270.843 413.277C288.478 412.981 306.074 410.449 323.075 405.762C341.099 400.793 359.074 392.96 371.377 378.898C378.601 370.64 383.512 360.64 387.812 350.55C396.023 331.285 402.321 311.207 406.583 290.706C409.253 291.267 409.29 295.036 408.674 297.69C401.053 330.522 392.196 365.518 367.096 388.046C344.426 408.393 312.481 414.703 282.049 416.405C264.47 417.388 246.614 417.081 229.587 412.606C212.561 408.13 196.303 399.178 185.494 385.299C188.647 397.303 199.326 405.871 210.444 411.415C239.635 425.972 274.107 425.203 306.34 420.143C327.812 416.772 349.851 411.24 366.561 397.359C380.844 385.493 389.947 368.548 396.798 351.301C404.382 332.211 409.643 312.202 412.429 291.853C414.163 290.759 415.449 293.82 415.229 295.857C411.473 330.731 398.094 364.522 376.953 392.531L380.541 426.315ZM360.24 485.95C358.377 482.809 357.178 479.278 356.743 475.653L354.067 484.71L347.313 458.987C346.789 456.992 345.514 454.495 343.494 454.924C341.53 455.34 341.309 458.033 341.602 460.016C343.073 469.995 345.879 479.777 349.922 489.02L342.74 482.726C342.391 485.722 343.18 488.837 344.915 491.306C341.174 488.555 336.156 487.617 331.672 488.831C334.877 493.278 339.227 496.893 344.187 499.231L338.119 490.771C343.024 493.599 348.163 496.022 353.467 498.008L348.325 491.569L354.679 493.328C349.817 482.283 344.864 470.816 344.982 458.751C346.822 468.566 349.516 478.22 353.023 487.571C353.618 489.156 354.278 490.794 355.544 491.918C356.81 493.043 358.868 493.467 360.194 492.414C361.225 491.595 361.526 490.184 361.76 488.889L364.621 473.041L367.765 492.695C370.148 486.684 377.898 485.177 384.372 485.137C392.92 485.084 401.533 486.024 410.123 486.962H410.123H410.123H410.124H410.124H410.124H410.124H410.125H410.125C425.61 488.653 441.024 490.336 455.861 486.177C455.425 488.468 454.663 490.697 453.605 492.775C465.577 491.035 477.692 490.271 489.788 490.494C494.897 490.588 500.021 490.856 505.145 491.125H505.146H505.146H505.147H505.147H505.147H505.148H505.148H505.149H505.149C518.695 491.835 532.242 492.545 545.515 490.033L457.425 489.26C459.079 489.164 460.347 487.243 459.783 485.687C459.219 484.13 457.014 483.464 455.681 484.448C454.815 481.697 450.921 480.474 448.634 482.234C449.96 478.152 452.582 474.5 456.028 471.936C452.138 471.728 448.188 472.917 445.062 475.237L454.537 431.444C453.735 430.756 452.399 431.218 451.807 432.093C451.222 432.958 451.156 434.059 451.094 435.103L451.093 435.136C450.205 450.09 444.925 464.757 436.075 476.852L432.6 466.811L427.619 478.805C425.362 477.059 422.159 476.618 419.513 477.69C420.189 480.254 422.243 482.412 424.774 483.215L425.953 480.061L433.734 485.266C430.76 482.154 430.116 477.062 432.221 473.308L436.929 481.196L446.057 463.169C446.108 470.407 443.001 477.249 439.957 483.817C443.266 481.229 446.111 478.05 448.316 474.475C450.444 478.239 448.119 483.286 444.418 485.526C440.717 487.767 436.139 487.888 431.815 487.706C425.217 487.427 418.568 486.6 411.928 485.773C397.016 483.917 382.146 482.066 367.981 486.45L365.938 467.642C362.818 473.273 360.866 479.545 360.24 485.95ZM449.114 486.452C448.794 486.07 448.796 485.457 449.118 485.077L449.375 485.174C449.808 484.14 451.627 484.225 451.962 485.295C451.122 485.899 450.137 486.3 449.114 486.452ZM497.24 286.618C486.981 281.439 474.772 282.837 463.384 284.396C460.166 284.836 456.885 285.298 453.97 286.729C451.055 288.16 448.517 290.752 448.014 293.956C420.2 290.488 393.547 278.262 372.791 259.451C368.286 255.368 363.689 249.554 365.715 243.826C366.352 242.025 367.591 240.506 368.879 239.095C378.557 228.499 391.899 222.126 404.887 216.01C390.167 217.299 376.042 224.449 366.299 235.545C364.066 238.088 362.007 240.929 361.238 244.223C359.339 252.356 365.665 259.986 371.995 265.442C392.195 282.853 417.602 294.159 444.072 297.516C445.659 297.717 445.741 299.946 445.596 301.538C444.951 308.616 448.814 315.524 454.17 320.206C459.525 324.888 466.232 327.699 472.888 330.217C493.5 338.014 514.891 343.757 536.639 347.331C538.076 347.568 540.05 347.456 540.352 346.034C535.334 342.718 529.293 341.454 523.386 340.219L523.386 340.219C523.067 340.152 522.748 340.086 522.43 340.019C507.455 336.871 492.681 332.77 478.226 327.75C472.296 325.691 466.352 323.442 461.181 319.886C456.011 316.329 451.62 311.305 449.966 305.256C449.15 302.269 450.258 297.811 453.335 298.187C465.865 299.717 478.74 301.228 490.975 298.124C493.744 297.422 496.63 296.362 498.318 294.06C500.005 291.758 499.79 287.905 497.24 286.618ZM465.634 294.887C461.333 294.148 456.938 293.95 452.588 294.299C454.702 290.289 459.865 289.233 464.362 288.622C474.134 287.293 484.311 285.997 493.674 289.091C494.293 289.296 494.953 289.556 495.288 290.115C495.728 290.85 495.407 291.85 494.781 292.436C494.155 293.022 493.302 293.287 492.476 293.518C483.776 295.946 474.536 296.417 465.634 294.887ZM323.302 497.193C330.5 496.992 337.742 498.581 344.192 501.777C342.468 504.252 339.003 504.599 335.986 504.713L257.136 507.701C256.413 507.612 256.277 506.497 256.789 505.98C257.301 505.463 258.101 505.397 258.828 505.361L335.801 501.612C331.354 501.205 327.015 499.671 323.302 497.193ZM171.557 236.767C170.434 242.133 174.98 247.859 180.455 248.265C171.502 261.739 155.375 268.389 139.88 273.083C130.209 276.013 119.481 278.419 110.261 274.285C109.117 274.983 110.337 276.702 111.545 277.284C120.517 281.601 131.154 279.195 140.698 276.351C154.693 272.18 169.12 266.789 178.643 255.73C179.033 255.277 179.422 254.811 179.813 254.341C182.264 251.399 184.82 248.331 188.505 247.651C200.37 245.459 210.252 238.038 220.016 230.705C222.231 229.041 224.44 227.382 226.664 225.79C240.184 216.113 255.179 208.496 270.971 203.282C272.366 202.822 274.062 201.967 273.938 200.505C254.358 202.3 237.243 213.961 221.462 225.674L220.936 226.065C210.211 234.028 199.003 242.348 185.806 244.322C190.117 240.927 189.207 233.081 184.343 230.537C179.48 227.994 172.681 231.4 171.557 236.767ZM175.211 240.046C174.331 237.443 175.69 234.346 178.104 233.027C178.789 232.653 179.555 232.404 180.337 232.403C182.914 232.401 184.797 235.154 184.814 237.728C184.831 240.303 183.524 242.677 182.254 244.918C179.283 244.463 176.173 242.89 175.211 240.046ZM468.203 182.681C467.473 181.87 467.697 180.777 467.93 179.644C468.094 178.844 468.262 178.025 468.101 177.271C467.96 176.617 467.579 176.061 467.196 175.502C466.857 175.008 466.517 174.513 466.343 173.948C466.383 173.201 467.383 172.818 468.065 173.127C468.747 173.437 469.128 174.168 469.366 174.878C470.234 177.466 469.788 180.458 468.203 182.681ZM402.196 125.883C404.021 121.563 407.638 117.733 412.249 116.856C413.742 116.572 413.695 114.115 412.388 113.342C411.08 112.57 409.401 113.027 408.029 113.679C401.64 116.716 397.606 123.401 396.025 130.289C394.445 137.178 394.967 144.351 395.499 151.398L398.324 188.855C398.42 190.128 398.537 191.465 399.247 192.528C400.693 194.691 403.795 194.759 406.394 194.594L419.552 193.759C416.628 191.471 412.703 190.507 409.05 191.181C406.916 191.575 404.773 190.169 403.642 188.32C402.512 186.471 402.181 184.257 401.9 182.109C400.067 168.051 399.394 153.843 399.891 139.676C400.056 134.99 400.372 130.203 402.196 125.883ZM435.793 458.358C435.045 458.899 434.296 457.666 434.187 456.75C429.103 414.065 428.336 370.998 427.575 328.018L427.061 299.043C427.047 298.218 427.059 297.314 427.59 296.681C428.504 295.593 430.427 296.092 431.226 297.268C432.025 298.444 432.026 299.967 431.999 301.388C431.216 343.682 431.73 386.059 435.785 428.166C435.834 428.67 435.883 429.174 435.932 429.678L435.934 429.704C436.864 439.269 437.808 448.979 435.793 458.358ZM393.518 189.293C392.404 188.682 391.03 189.028 389.812 189.388C333.44 206.038 277.196 223.207 221.781 242.803C220.744 243.17 219.558 243.698 219.32 244.771C219.068 245.907 220.139 246.993 221.285 247.203C222.431 247.414 223.59 247.005 224.684 246.603C280.219 226.201 336.589 208.068 393.608 192.265C394.832 191.926 394.632 189.904 393.518 189.293Z" fill="#00160A"/>
<path fill-rule="evenodd" clip-rule="evenodd" d="M594.366 443.993C593.053 444.569 591.632 445.105 590.22 444.862C588.807 444.619 587.485 443.295 587.769 441.891C590.363 429.061 587.106 415.168 579.078 404.822C576.264 401.196 572.914 398.006 570.173 394.325C568.445 392.006 566.908 389.09 567.784 386.335C569.031 382.415 574.052 381.461 578.161 381.181C587.713 380.531 597.266 379.881 606.818 379.231C611.219 378.931 616.289 378.887 619.227 382.173C627.406 391.322 643.347 391.937 652.208 383.444C653.579 382.13 655.305 384.746 655.251 386.643C655.08 392.608 652.618 398.479 648.482 402.786C647.507 403.803 646.259 404.798 644.856 404.652C643.454 404.506 642.42 402.496 643.538 401.638C645.937 399.798 648.38 397.912 650.061 395.402C651.743 392.891 652.559 389.6 651.412 386.805C645.241 394.601 639.012 402.35 632.724 410.052C621.822 423.405 610.162 437.064 594.366 443.993M611.596 404.699C610.027 405.132 608.353 404.799 606.786 404.357C595.511 401.176 585.125 392.378 573.592 394.437C587.039 405.253 594.179 423.388 591.709 440.454C600.569 438.559 607.566 431.954 613.842 425.426C623.13 415.764 631.95 405.653 640.259 395.139C634.287 395.09 628.337 393.37 623.262 390.224C616.993 391.773 617.82 402.979 611.596 404.699M619.784 386.935C616.049 382.538 609.337 382.674 603.585 383.178C596.083 383.836 588.581 384.494 581.079 385.152C578.034 385.419 574.536 385.953 572.947 388.563C585.932 391.277 598.591 395.541 610.569 401.234C612.11 396.402 615.197 392.074 619.268 389.042C619.726 388.701 620.25 388.263 620.189 387.696C620.158 387.406 619.973 387.158 619.784 386.935V386.935Z" fill="#8066FF"/>
<path fill-rule="evenodd" clip-rule="evenodd" d="M63.6081 282.079C52.3088 277.566 38.8435 278.905 28.6565 285.553C27.6703 286.197 26.2524 285.479 25.7642 284.408C25.276 283.338 25.4586 282.092 25.7083 280.942C28.9618 265.962 41.9229 254.5 56.3368 249.233C70.7506 243.966 86.5169 243.951 101.839 244.851C103.359 244.941 104.948 245.059 106.245 245.857C107.542 246.654 108.415 248.359 107.768 249.736C101.741 262.577 97.2006 276.114 94.2666 289.99C93.7909 292.24 91.4606 293.732 89.1655 293.92C86.8705 294.108 84.6217 293.26 82.5389 292.28C76.048 289.223 70.2714 284.74 63.6081 282.079M64.8997 266.922C63.8927 267.739 62.3187 267.308 61.3712 266.422C60.4236 265.537 59.8837 264.312 59.1389 263.251C55.1437 257.56 45.9757 258.032 40.5413 262.374C35.1069 266.717 32.4772 273.578 30.0826 280.105C46.0257 273.189 65.6624 275.671 79.3777 286.335C81.2503 287.791 83.1084 289.431 85.4143 289.992C87.7202 290.553 90.6252 289.545 91.2092 287.248C94.3295 274.976 98.1746 262.888 102.718 251.067C94.0004 261.888 75.6933 258.165 64.8997 266.922M61.4305 260.383C62.3258 261.506 63.9513 261.804 65.3664 261.55C66.7814 261.297 68.067 260.593 69.3855 260.021C73.9249 258.05 78.9526 257.611 83.8193 256.709C88.686 255.808 93.7057 254.283 97.1318 250.716C89.4018 250.693 81.6719 250.669 73.942 250.646C66.1737 250.623 57.8026 250.787 51.5619 255.407C55.361 255.546 59.063 257.412 61.4305 260.383Z" fill="#8066FF"/>
<path fill-rule="evenodd" clip-rule="evenodd" d="M426.627 281.044C426.609 274.254 426.591 267.464 426.572 260.674C426.567 258.724 426.562 256.774 426.557 254.824C426.553 253.479 426.779 251.797 428.059 251.378C429.026 251.062 430.092 251.757 430.544 252.668C430.997 253.579 430.992 254.641 430.976 255.658C430.835 265.133 430.694 274.609 430.553 284.085C430.532 285.447 430.304 287.124 429.026 287.602C426.895 286.397 426.634 283.49 426.627 281.044H426.627Z" fill="#00160A"/>
<path fill-rule="evenodd" clip-rule="evenodd" d="M413.053 274.76C412.069 275.191 411.561 273.572 411.713 272.509C412.257 268.707 412.803 264.897 413.729 261.169C414.306 258.848 415.137 256.406 417.056 254.976C418.976 253.547 422.272 253.797 423.211 255.997C423.666 257.062 423.476 258.279 423.268 259.419C421.975 266.473 420.235 273.445 418.06 280.279C417.968 280.569 417.867 280.871 417.647 281.082C417.112 281.594 416.146 281.25 415.775 280.609C415.405 279.967 415.453 279.177 415.512 278.439C416.396 278.374 416.808 277.336 417.02 276.477C417.887 272.968 418.754 269.459 419.62 265.95C420.295 263.219 420.91 260.11 419.341 257.775C417.728 258.766 417.123 260.772 416.643 262.601C415.677 266.281 414.712 269.961 413.747 273.641C413.631 274.081 413.47 274.577 413.053 274.76L413.053 274.76Z" fill="#00160A"/>
</svg>
