<svg width="250" height="284" viewBox="0 0 250 284" fill="none" xmlns="http://www.w3.org/2000/svg">
<g clip-path="url(#clip0_226_56)">
<path d="M160.726 210.08C161.287 210.38 161.927 210.5 162.559 210.424C163.19 210.348 163.783 210.08 164.257 209.655C164.731 209.231 165.064 208.671 165.209 208.052C165.354 207.433 165.306 206.784 165.07 206.193C165.133 205.878 165.179 205.653 165.242 205.338C166.456 204.205 167.98 203.461 169.62 203.2C171.259 202.939 172.94 203.173 174.445 203.874C175.951 204.574 177.213 205.708 178.069 207.13C178.926 208.553 179.339 210.198 179.254 211.857C178.87 221.209 179.332 231.301 173.116 238.84C201.485 215.657 214.42 176.163 205.757 140.642C201.506 134.718 199.523 126.849 201.429 119.717C203.821 122.044 208.485 121.419 207.772 117.391C207.39 115.799 206.994 114.212 206.612 112.62C222.951 106.244 227.217 130.54 207.862 140.433C209.433 147.186 210.292 154.085 210.428 161.017C212.613 154.766 216.251 149.124 221.042 144.553C225.68 140.377 231.814 137.921 237.52 135.118C244.463 131.7 252.169 138.477 249.435 145.713C244.813 145.122 241.542 150.647 245.737 153.616C238.37 165.989 224.244 173.853 209.892 173.978C208.441 188.097 203.997 201.743 196.857 214.009C206.026 200.067 223.769 204.081 237.791 203.487C238.721 203.37 239.665 203.526 240.508 203.936C241.352 204.346 242.057 204.993 242.539 205.798C243.021 206.602 243.258 207.529 243.222 208.466C243.186 209.404 242.878 210.31 242.336 211.075C240.491 210.967 238.64 211.042 236.811 211.299C235.95 211.427 235.15 211.818 234.52 212.418C233.89 213.018 233.461 213.798 233.292 214.652C233.123 215.505 233.222 216.39 233.575 217.185C233.929 217.98 234.52 218.646 235.266 219.092C222.966 230.369 203.906 232.794 188.947 225.598C184.524 231.169 179.534 236.266 174.058 240.805L151.818 230.203C151.856 229.918 151.906 229.629 151.952 229.348C153.949 230.458 156.075 231.32 158.281 231.915C155.908 222.869 153.265 217.572 160.725 210.08H160.726Z" fill="#F2F2F2"/>
<path d="M121.428 188.683C121.022 189.172 120.474 189.525 119.861 189.693C119.247 189.861 118.597 189.836 117.998 189.622C117.399 189.408 116.88 189.015 116.512 188.496C116.144 187.977 115.944 187.358 115.939 186.722C115.762 186.454 115.635 186.262 115.458 185.995C113.906 185.404 112.214 185.289 110.597 185.666C108.98 186.043 107.512 186.894 106.382 188.11C105.252 189.327 104.511 190.853 104.254 192.494C103.997 194.134 104.235 195.814 104.939 197.318C108.822 205.834 112.201 215.355 120.801 219.993C85.7838 209.223 58.9082 177.527 53.5338 141.361C55.2364 134.271 54.1047 126.235 49.6494 120.35C48.3115 123.407 43.7569 124.587 42.8976 120.588C42.6512 118.969 42.419 117.35 42.1725 115.732C24.6352 115.99 29.8485 140.101 51.5047 141.962C52.5977 148.808 54.4034 155.522 56.8924 161.993C52.5113 157.028 47.0142 153.175 40.8533 150.75C34.9821 148.631 28.3753 148.67 22.0339 148.228C14.314 147.681 9.73372 156.865 14.9947 162.534C19.0522 160.243 24.1651 164.126 21.4004 168.458C32.89 177.138 48.9384 179.093 62.2772 173.795C68.9465 186.323 78.2092 197.285 89.448 205.952C75.6983 196.498 60.7801 206.909 47.5699 211.648C46.664 211.89 45.8483 212.391 45.2221 213.089C44.596 213.787 44.1865 214.652 44.0436 215.579C43.9008 216.506 44.0307 217.454 44.4176 218.309C44.8045 219.163 45.4316 219.886 46.2224 220.39C47.8899 219.594 49.6324 218.965 51.4242 218.514C52.2693 218.307 53.1577 218.367 53.9674 218.685C54.7772 219.003 55.4687 219.564 55.9473 220.291C56.4258 221.018 56.6679 221.874 56.6404 222.744C56.6128 223.614 56.317 224.454 55.7935 225.148C71.4387 230.952 90.0051 226.007 101.145 213.7C107.342 217.191 113.886 220.029 120.67 222.168L137.268 203.96C137.125 203.71 136.97 203.461 136.821 203.218C135.391 205 133.748 206.6 131.928 207.982C130.714 198.71 131.164 192.806 121.429 188.683L121.428 188.683Z" fill="#F2F2F2"/>
<path d="M125.7 111.743C126.333 111.679 126.931 111.422 127.413 111.007C127.895 110.592 128.238 110.039 128.395 109.422C128.552 108.805 128.516 108.156 128.291 107.56C128.066 106.965 127.664 106.453 127.139 106.094C127.016 105.798 126.928 105.585 126.805 105.289C127.181 103.672 128.031 102.204 129.247 101.073C130.463 99.9419 131.989 99.1998 133.629 98.9418C135.269 98.6837 136.949 98.9214 138.453 99.6243C139.957 100.327 141.217 101.463 142.072 102.887C146.967 110.865 152.976 118.985 152.02 128.71C162.645 93.6463 151.365 53.6485 124.369 28.9916C117.538 26.4442 111.504 21.0169 109.111 14.0339C112.394 14.6316 115.917 11.5125 113.079 8.56596C111.875 7.45762 110.661 6.36068 109.456 5.25227C119.466 -9.15162 136.553 8.63945 126.001 27.6436C131.069 32.3742 135.629 37.6218 139.606 43.3007C137.935 36.8935 137.809 30.1811 139.239 23.7157C140.761 17.6621 144.483 12.2033 147.658 6.6955C151.516 -0.0141268 161.691 1.31569 163.456 8.84663C159.289 10.9329 159.654 17.3431 164.791 17.4691C165.574 31.8483 158.232 46.2531 146.388 54.3592C153.054 66.8887 156.973 80.6953 157.885 94.8587C157.723 78.1726 174.69 71.6116 185.999 63.3C186.706 62.6839 187.577 62.2868 188.505 62.1573C189.434 62.0277 190.38 62.1712 191.229 62.5704C192.078 62.9695 192.792 63.607 193.284 64.405C193.776 65.203 194.026 66.1272 194.002 67.0646C192.411 68.0033 190.916 69.0978 189.541 70.3319C188.897 70.9177 188.451 71.6881 188.263 72.5375C188.074 73.3869 188.153 74.2739 188.489 75.0767C188.824 75.8795 189.4 76.5589 190.136 77.0217C190.873 77.4846 191.735 77.7083 192.604 77.6621C188.68 93.8823 174.209 106.522 157.779 108.89C157.213 115.981 155.912 122.994 153.897 129.816L129.524 133.416C129.397 133.158 129.277 132.89 129.158 132.631C131.435 132.439 133.68 131.97 135.843 131.233C128.831 125.047 123.682 122.123 125.699 111.744L125.7 111.743Z" fill="#F2F2F2"/>
<path d="M150.213 103.928C139.117 103.928 133.099 102.572 130.997 99.6771C129.142 97.1232 130.385 93.7534 131.825 89.8517C132.86 87.0472 134.033 83.8687 134.033 80.7228C134.033 65.4219 141.79 57.6636 157.09 57.6636C164.703 57.6636 172.876 61.7076 178.954 68.4816C184.48 74.6399 187.233 82.0103 186.507 88.7027C185.912 94.1914 183.357 97.8008 178.468 100.063L178.182 100.195L178.1 99.8904C177.678 98.3151 176.964 96.8333 175.994 95.522C175.899 97.5803 175.381 99.5968 174.47 101.445L174.418 101.55L174.305 101.583C168.771 103.159 162.204 103.586 157.1 103.782C154.616 103.879 152.321 103.927 150.213 103.928Z" fill="#2F2E41"/>
<path d="M153.237 125.246C152.812 123.996 152.095 122.866 151.145 121.948C150.195 121.031 149.04 120.353 147.776 119.971C146.512 119.589 145.175 119.515 143.876 119.753C142.578 119.992 141.354 120.536 140.308 121.342L103.81 143.165L92.3892 115.296C93.354 113.881 93.8457 112.196 93.7939 110.484C93.7421 108.771 93.1495 107.12 92.1009 105.765C91.0523 104.41 89.6017 103.423 87.9571 102.944C86.3126 102.464 84.5585 102.519 82.9466 103.098C81.3346 103.677 79.9476 104.753 78.9844 106.169C78.0212 107.586 77.5313 109.271 77.585 110.983C77.6388 112.695 78.2333 114.347 79.2834 115.7C80.3335 117.053 81.7852 118.039 83.4304 118.517C84.1343 126.553 88.0463 162.473 101.656 161.167C113.095 160.07 141.503 141.149 150.327 134.589C151.738 133.54 152.781 132.071 153.304 130.392C153.827 128.713 153.804 126.911 153.237 125.246Z" fill="#FFB6B6"/>
<path d="M180.741 283.75H148.975L143.648 257.409L141.92 283.75H112.411C112.423 263.065 113.5 242.393 115.639 221.819L116.005 220.573L116.583 218.58L116.949 217.329L123.055 196.358L123.537 194.694H160.308C162.424 196.681 164.375 198.837 166.144 201.14C166.743 201.903 167.368 202.73 168.009 203.621C168.455 204.251 168.916 204.914 169.377 205.608C173.474 211.708 176.537 218.443 178.441 225.54V225.545C178.764 226.759 179.051 228.001 179.3 229.272V229.277C179.522 230.406 179.718 231.551 179.872 232.723C179.989 233.576 180.09 234.44 180.164 235.315C180.606 240.161 180.451 245.042 179.703 249.85L180.741 283.75Z" fill="#2F2E41"/>
<path d="M12.3153 42.8958C14.3783 42.0972 15.6003 40.2863 15.0448 38.8511C14.4892 37.4158 12.3665 36.8998 10.3035 37.6984C8.2405 38.497 7.01847 40.308 7.574 41.7432C8.12954 43.1784 10.2523 43.6945 12.3153 42.8958Z" fill="#E6E6E6"/>
<path d="M38.2901 39.5635C40.3531 38.7649 41.5752 36.954 41.0196 35.5188C40.4641 34.0836 38.3413 33.5675 36.2783 34.3661C34.2153 35.1648 32.9933 36.9757 33.5489 38.4109C34.1044 39.8461 36.2271 40.3622 38.2901 39.5635Z" fill="#3F3D56"/>
<path d="M10.0626 65.0582C12.1256 64.2596 13.3476 62.4487 12.7921 61.0134C12.2366 59.5782 10.1138 59.0621 8.05082 59.8608C5.98783 60.6594 4.76578 62.4703 5.32132 63.9056C5.87685 65.3408 7.9996 65.8568 10.0626 65.0582Z" fill="#FF6584"/>
<path d="M2.54826 74.8341C3.4947 74.6101 4.0009 73.3255 3.67888 71.9649C3.35686 70.6043 2.32856 69.683 1.38213 69.907C0.435692 70.131 -0.070494 71.4156 0.251525 72.7762C0.573544 74.1368 1.60183 75.0582 2.54826 74.8341Z" fill="#E6E6E6"/>
<path d="M2.39372 91.3852C3.34016 91.1611 3.84634 89.8765 3.52432 88.5159C3.2023 87.1554 2.17402 86.234 1.22759 86.458C0.281151 86.682 -0.225035 87.9666 0.096984 89.3272C0.419003 90.6878 1.44729 91.6092 2.39372 91.3852Z" fill="#3F3D56"/>
<path d="M25.1911 57.1042C26.1375 56.8801 26.6437 55.5956 26.3217 54.235C25.9997 52.8744 24.9714 51.953 24.0249 52.177C23.0785 52.4011 22.5723 53.6856 22.8943 55.0462C23.2164 56.4068 24.2446 57.3282 25.1911 57.1042Z" fill="#E6E6E6"/>
<path d="M11.5109 53.7819C12.4573 53.5578 12.9635 52.2732 12.6415 50.9126C12.3195 49.5521 11.2912 48.6307 10.3448 48.8547C9.39834 49.0787 8.89215 50.3633 9.21417 51.7239C9.53619 53.0845 10.5645 54.0059 11.5109 53.7819Z" fill="#FF6584"/>
<path d="M26.0109 38.5412C26.9573 38.3171 27.4635 37.0325 27.1415 35.6719C26.8195 34.3114 25.7912 33.39 24.8448 33.614C23.8983 33.838 23.3922 35.1226 23.7142 36.4832C24.0362 37.8438 25.0645 38.7652 26.0109 38.5412Z" fill="#3F3D56"/>
<path d="M32.7545 153.094C33.752 151.922 33.195 149.809 31.5105 148.375C29.826 146.941 27.6517 146.729 26.6543 147.901C25.6568 149.073 26.2137 151.185 27.8983 152.619C29.5828 154.053 31.757 154.266 32.7545 153.094Z" fill="#E6E6E6"/>
<path d="M17.4566 131.837C18.4541 130.666 17.8972 128.553 16.2126 127.119C14.5281 125.685 12.3539 125.473 11.3564 126.645C10.3589 127.817 10.9159 129.929 12.6004 131.363C14.285 132.797 16.4592 133.009 17.4566 131.837Z" fill="#3F3D56"/>
<path d="M53.3148 144.522C54.3123 143.35 53.7553 141.238 52.0708 139.804C50.3863 138.37 48.212 138.158 47.2146 139.329C46.2171 140.501 46.774 142.614 48.4586 144.048C50.1431 145.482 52.3173 145.694 53.3148 144.522Z" fill="#FF6584"/>
<path d="M63.5286 144.757C64.5716 143.826 64.8922 142.483 64.2445 141.757C63.5969 141.032 62.2263 141.198 61.1833 142.129C60.1402 143.06 59.8197 144.403 60.4673 145.129C61.1149 145.855 62.4855 145.688 63.5286 144.757Z" fill="#E6E6E6"/>
<path d="M78.1558 137.012C79.1988 136.081 79.5194 134.738 78.8717 134.013C78.2241 133.287 76.8535 133.453 75.8105 134.385C74.7674 135.316 74.4469 136.659 75.0945 137.384C75.7421 138.11 77.1127 137.943 78.1558 137.012Z" fill="#3F3D56"/>
<path d="M37.1572 133.286C38.2003 132.355 38.5208 131.012 37.8732 130.287C37.2256 129.561 35.855 129.728 34.812 130.659C33.7689 131.59 33.4483 132.933 34.096 133.658C34.7436 134.384 36.1142 134.218 37.1572 133.286Z" fill="#E6E6E6"/>
<path d="M40.7498 146.899C41.7928 145.968 42.1134 144.625 41.4657 143.899C40.8181 143.174 39.4475 143.34 38.4045 144.271C37.3614 145.202 37.0409 146.545 37.6885 147.271C38.3361 147.997 39.7067 147.83 40.7498 146.899Z" fill="#FF6584"/>
<path d="M20.4443 141.404C21.4874 140.473 21.8079 139.13 21.1603 138.405C20.5127 137.679 19.1421 137.845 18.0991 138.776C17.056 139.707 16.7355 141.05 17.3831 141.776C18.0307 142.502 19.4013 142.335 20.4443 141.404Z" fill="#3F3D56"/>
<path d="M135.526 16.7632C136.907 16.0841 137.235 13.9241 136.259 11.9389C135.282 9.95366 133.372 8.89491 131.991 9.5741C130.61 10.2533 130.282 12.4132 131.258 14.3985C132.234 16.3837 134.145 17.4424 135.526 16.7632Z" fill="#E6E6E6"/>
<path d="M141.121 42.348C142.502 41.6688 142.83 39.5089 141.854 37.5236C140.878 35.5384 138.967 34.4797 137.586 35.1588C136.205 35.838 135.877 37.998 136.853 39.9832C137.829 41.9684 139.74 43.0272 141.121 42.348Z" fill="#3F3D56"/>
<path d="M113.253 16.4609C114.634 15.7817 114.962 13.6218 113.986 11.6365C113.01 9.65129 111.099 8.59253 109.718 9.27172C108.337 9.95091 108.009 12.1109 108.985 14.0961C109.961 16.0813 111.872 17.1401 113.253 16.4609Z" fill="#FF6584"/>
<path d="M101.546 8.34163C102.873 7.90161 103.701 6.79649 103.395 5.87326C103.088 4.95003 101.765 4.55829 100.438 4.99831C99.1105 5.43832 98.2828 6.54346 98.5889 7.46669C98.8949 8.38992 100.219 8.78164 101.546 8.34163Z" fill="#E6E6E6"/>
<path d="M85.0461 9.63783C86.3732 9.19782 87.2009 8.09269 86.8948 7.16946C86.5887 6.24623 85.2648 5.85451 83.9377 6.29452C82.6107 6.73454 81.783 7.83966 82.0891 8.76289C82.3952 9.68612 83.7191 10.0778 85.0461 9.63783Z" fill="#3F3D56"/>
<path d="M121.19 29.3454C122.518 28.9054 123.345 27.8003 123.039 26.8771C122.733 25.9538 121.409 25.5621 120.082 26.0021C118.755 26.4421 117.927 27.5473 118.233 28.4705C118.539 29.3937 119.863 29.7855 121.19 29.3454Z" fill="#E6E6E6"/>
<path d="M123.301 15.4258C124.628 14.9857 125.456 13.8806 125.15 12.9574C124.844 12.0341 123.52 11.6424 122.193 12.0824C120.866 12.5225 120.038 13.6276 120.344 14.5508C120.65 15.4741 121.974 15.8658 123.301 15.4258Z" fill="#FF6584"/>
<path d="M139.753 28.5357C141.08 28.0957 141.907 26.9906 141.601 26.0673C141.295 25.1441 139.971 24.7524 138.644 25.1924C137.317 25.6324 136.49 26.7375 136.796 27.6608C137.102 28.584 138.426 28.9757 139.753 28.5357Z" fill="#3F3D56"/>
<path d="M144.847 108.187L162.347 107.286L170.476 120.131C170.476 120.131 185.77 122.688 184.709 140.711C183.649 158.734 166.101 174.55 166.101 174.55L166.851 183.936L165.549 187.658L165.716 189.749L167.493 191.963L167.676 194.252L166.101 197.874L168.243 201.343L123.222 196.981L121.576 190.983L123.978 187.762L122.636 183.562L124.653 179.521L125.705 166.687C125.705 166.687 114.2 149.402 127.407 136.383L132.707 127.371L138.638 120.135L144.847 108.187Z" fill="#A786DF"/>
<path d="M153.547 104.56C163.788 104.56 172.09 96.2576 172.09 86.0154C172.09 75.7733 163.788 67.4704 153.547 67.4704C143.305 67.4704 135.003 75.7733 135.003 86.0154C135.003 96.2576 143.305 104.56 153.547 104.56Z" fill="#FFB6B6"/>
<path d="M151.064 84.8914C149.466 84.8914 147.869 84.8463 146.273 84.7562L145.987 84.7402L146.025 84.457C146.26 82.6869 146.128 80.8873 145.636 79.1706C144.801 81.1253 143.559 82.8795 141.993 84.3162L141.905 84.3972L141.785 84.3843C137.45 83.9101 133.155 83.1265 128.931 82.0398L128.769 81.9983L128.737 81.8348C128.422 80.2857 128.258 78.7095 128.25 77.1286C128.25 72.1903 130.04 68.0339 133.291 65.425C136.829 62.5853 141.901 61.712 147.578 62.9645H165.73C167.726 62.9668 169.639 63.7606 171.05 65.1718C172.461 66.583 173.255 68.4963 173.257 70.492V81.9877L173.059 82.0395C165.879 83.9265 158.487 84.8849 151.064 84.8914Z" fill="#2F2E41"/>
<path d="M24.5314 64.2632C23.7188 64.5604 23.0573 65.1678 22.692 65.9522C22.3267 66.7366 22.2874 67.6338 22.5827 68.4471L42.1649 122.182C42.4621 122.995 43.0694 123.657 43.8538 124.022C44.6381 124.387 45.5353 124.427 46.3485 124.131L122.35 96.4311C123.163 96.1339 123.824 95.5265 124.19 94.7421C124.555 93.9577 124.594 93.0605 124.299 92.2472L104.717 38.5118C104.42 37.6992 103.812 37.0376 103.028 36.6722C102.244 36.3068 101.346 36.2675 100.533 36.5629L24.5314 64.2632Z" fill="#CCCCCC"/>
<path d="M94.0641 103.778L47.5432 120.734C46.6679 121.052 45.7023 121.009 44.8581 120.616C44.014 120.223 43.3603 119.511 43.0405 118.636L25.2796 69.8985C24.9617 69.0232 25.004 68.0575 25.3972 67.2132C25.7904 66.369 26.5023 65.7153 27.3769 65.3954L99.084 39.2604C99.9593 38.9425 100.925 38.9848 101.769 39.378C102.613 39.7713 103.267 40.4833 103.587 41.358L112.169 64.9074C114.913 72.4635 114.547 80.7995 111.153 88.0866C107.759 95.3738 101.613 101.017 94.0641 103.778Z" fill="white"/>
<path d="M60.5897 68.5694L49.5347 72.5986C49.3961 72.6491 49.2489 72.6719 49.1014 72.6655C48.954 72.6591 48.8093 72.6238 48.6755 72.5615C48.5418 72.4991 48.4216 72.4111 48.3219 72.3024C48.2222 72.1936 48.1448 72.0663 48.0943 71.9276C48.0438 71.789 48.021 71.6417 48.0274 71.4943C48.0338 71.3469 48.0691 71.2021 48.1314 71.0684C48.1937 70.9346 48.2818 70.8144 48.3905 70.7147C48.4993 70.6149 48.6266 70.5376 48.7652 70.4871L59.8202 66.4579C60.1002 66.3558 60.4092 66.3692 60.6794 66.495C60.9495 66.6209 61.1586 66.8489 61.2606 67.1289C61.3627 67.4089 61.3493 67.718 61.2235 67.9881C61.0977 68.2583 60.8697 68.4674 60.5897 68.5694Z" fill="#A786DF"/>
<path d="M86.945 63.8554L51.1085 76.9167C50.9698 76.9675 50.8225 76.9904 50.675 76.9841C50.5275 76.9779 50.3826 76.9426 50.2487 76.8803C50.1148 76.8181 49.9945 76.73 49.8946 76.6212C49.7948 76.5124 49.7174 76.385 49.6668 76.2462C49.6162 76.1075 49.5935 75.9601 49.5999 75.8125C49.6064 75.665 49.6418 75.5202 49.7042 75.3863C49.7667 75.2525 49.8549 75.1323 49.9638 75.0326C50.0727 74.9329 50.2002 74.8556 50.339 74.8052L86.1755 61.7439C86.3142 61.6934 86.4614 61.6706 86.6088 61.677C86.7562 61.6834 86.901 61.7187 87.0347 61.781C87.1685 61.8434 87.2887 61.9314 87.3884 62.0402C87.4881 62.1489 87.5655 62.2762 87.616 62.4149C87.6665 62.5535 87.6892 62.7008 87.6829 62.8482C87.6765 62.9956 87.6411 63.1404 87.5788 63.2741C87.5165 63.4079 87.4285 63.5281 87.3197 63.6278C87.211 63.7276 87.0837 63.8049 86.945 63.8554Z" fill="#A786DF"/>
<path d="M88.7511 68.8121L52.9146 81.8734C52.776 81.9239 52.6288 81.9466 52.4813 81.9403C52.3339 81.9339 52.1892 81.8985 52.0554 81.8362C51.9217 81.7739 51.8015 81.6859 51.7018 81.5771C51.602 81.4684 51.5247 81.341 51.4742 81.2024C51.4236 81.0637 51.4009 80.9165 51.4073 80.7691C51.4137 80.6216 51.449 80.4769 51.5113 80.3432C51.5736 80.2094 51.6617 80.0892 51.7704 79.9895C51.8792 79.8897 52.0065 79.8124 52.1451 79.7618L87.9816 66.7005C88.2615 66.5989 88.5703 66.6126 88.8401 66.7385C89.11 66.8644 89.3188 67.0922 89.4208 67.372C89.5227 67.6518 89.5095 67.9606 89.3839 68.2306C89.2584 68.5007 89.0307 68.7098 88.7511 68.8121Z" fill="#A786DF"/>
<path d="M90.5576 73.7687L54.7211 86.8301C54.5824 86.8808 54.4351 86.9037 54.2875 86.8974C54.14 86.8912 53.9951 86.8559 53.8612 86.7937C53.7273 86.7314 53.607 86.6433 53.5072 86.5345C53.4073 86.4257 53.3299 86.2983 53.2793 86.1595C53.2288 86.0208 53.2061 85.8734 53.2125 85.7259C53.2189 85.5783 53.2544 85.4335 53.3168 85.2997C53.3792 85.1658 53.4674 85.0456 53.5764 84.9459C53.6853 84.8462 53.8128 84.7689 53.9516 84.7185L89.7881 71.6572C89.9267 71.6067 90.074 71.5839 90.2214 71.5903C90.3688 71.5967 90.5135 71.632 90.6473 71.6943C90.781 71.7567 90.9012 71.8447 91.0009 71.9535C91.1007 72.0622 91.178 72.1896 91.2285 72.3282C91.2791 72.4669 91.3018 72.6141 91.2954 72.7615C91.289 72.9089 91.2537 73.0537 91.1914 73.1874C91.1291 73.3212 91.041 73.4414 90.9323 73.5411C90.8235 73.6409 90.6962 73.7182 90.5576 73.7687Z" fill="#A786DF"/>
<path d="M92.3639 78.7254L56.5274 91.7867C56.2474 91.8888 55.9384 91.8754 55.6682 91.7495C55.3981 91.6237 55.189 91.3957 55.087 91.1157C54.9849 90.8357 54.9983 90.5266 55.1241 90.2565C55.25 89.9863 55.4779 89.7772 55.7579 89.6752L91.5944 76.6139C91.7331 76.5633 91.8803 76.5406 92.0277 76.547C92.1751 76.5534 92.3198 76.5887 92.4536 76.651C92.5874 76.7133 92.7075 76.8014 92.8073 76.9101C92.907 77.0189 92.9844 77.1462 93.0349 77.2849C93.0854 77.4235 93.1081 77.5708 93.1017 77.7182C93.0954 77.8656 93.06 78.0103 92.9977 78.1441C92.9354 78.2779 92.8474 78.3981 92.7386 78.4978C92.6299 78.5975 92.5026 78.6749 92.3639 78.7254Z" fill="#A786DF"/>
<path d="M206.073 92.4911L186.452 139.447C185.615 141.434 184.031 143.012 182.04 143.841C180.05 144.669 177.813 144.682 175.814 143.877C174.779 143.46 173.84 142.837 173.055 142.045C172.269 141.254 171.652 140.31 171.243 139.273C170.833 138.235 170.64 137.125 170.673 136.01C170.707 134.895 170.967 133.799 171.438 132.788L193.314 84.6371L205.374 54.8184C204.332 53.779 203.635 52.444 203.378 50.9947C203.121 49.5454 203.317 48.0521 203.938 46.7177C204.559 45.3833 205.576 44.2725 206.85 43.5362C208.125 42.7999 209.595 42.4739 211.061 42.6023C212.527 42.7307 213.918 43.3074 215.045 44.254C216.172 45.2007 216.981 46.4713 217.361 47.8934C217.74 49.3154 217.673 50.8199 217.168 52.2025C216.663 53.5851 215.745 54.7787 214.538 55.6211L206.073 92.4911Z" fill="#FFB6B6"/>
</g>
<defs>
<clipPath id="clip0_226_56">
<rect width="250" height="283.75" fill="white"/>
</clipPath>
</defs>
</svg>
