<svg width="686" height="509" viewBox="0 0 686 509" fill="none" xmlns="http://www.w3.org/2000/svg">
<path fill-rule="evenodd" clip-rule="evenodd" d="M79.1341 473.211C134.027 532.707 346.3 498.532 486.072 498.532C546.37 498.532 748.723 528.623 665.163 321.965C391.183 -355.633 -94.794 284.697 79.1341 473.211Z" fill="#CAB6EC"/>
<path fill-rule="evenodd" clip-rule="evenodd" d="M322.01 477.997C322.277 477.793 322.556 477.572 322.673 477.258C323.045 476.25 321.584 475.58 320.505 475.605C318.941 475.64 316.934 476.689 317.413 478.173C317.69 479.032 318.752 479.429 319.644 479.271C320.536 479.113 321.291 478.546 322.01 477.997ZM323.228 460.174C324.235 460.489 325.229 460.877 326.106 461.462C327.752 462.56 328.872 464.264 329.947 465.921C330.718 467.109 331.499 468.32 331.884 469.682C332.3 471.157 332.226 472.73 331.947 474.237C331.078 478.929 328.17 483.211 324.119 485.761C320.069 488.311 314.937 489.092 310.306 487.862C309.405 487.622 308.497 487.296 307.804 486.674C307.222 486.152 306.829 485.456 306.47 484.763C304.584 481.122 303.312 477.077 303.458 472.983C303.603 468.889 305.293 464.746 308.495 462.172C312.512 458.943 318.302 458.635 323.228 460.174" fill="white"/>
<path fill-rule="evenodd" clip-rule="evenodd" d="M576.206 198.948C573.615 198.916 571.186 201.079 570.929 203.646C570.824 204.695 571.271 205.999 572.32 206.144C573.106 206.252 573.796 205.648 574.324 205.058C575.441 203.811 576.401 202.424 577.173 200.94C577.433 200.442 577.661 199.804 577.32 199.357C577.072 199.032 576.616 198.953 576.206 198.948ZM572.697 187.327C575.832 188.416 578.673 190.331 580.853 192.825C582.726 194.969 584.153 197.751 583.759 200.565C583.615 201.598 583.232 202.584 582.795 203.532C581.142 207.123 578.298 210.564 574.392 211.26C572.343 211.625 570.231 211.187 568.261 210.52C565.982 209.748 563.809 208.665 561.823 207.312C560.769 206.593 559.723 205.741 559.261 204.556C558.942 203.739 558.933 202.839 558.945 201.963C558.974 199.796 559.118 197.593 559.877 195.562C560.837 192.992 562.715 190.871 564.707 188.977C565.508 188.216 566.358 187.466 567.386 187.058C569.069 186.39 570.986 186.732 572.697 187.327Z" fill="white"/>
<path fill-rule="evenodd" clip-rule="evenodd" d="M490.994 3.38222C503.965 16.7017 514.203 32.6288 520.905 49.9134C521.365 51.1006 521.812 52.4193 521.373 53.6143C517.992 62.8155 511.467 70.4864 505.069 77.9452C500.981 82.7113 496.893 87.4775 492.804 92.2436C488.902 96.7935 484.998 101.344 480.964 105.78C460.421 128.363 436.149 148.111 408.037 160.262C406.976 160.72 405.838 161.177 404.695 160.994C403.553 160.811 402.482 159.711 402.781 158.602C406.257 145.714 409.754 132.24 406.966 119.19C406.293 116.042 405.543 112.078 408.165 110.184C429.397 94.8478 444.683 72.9268 459.333 51.3035C463.017 45.8664 466.691 40.4143 469.95 34.717C475.738 24.6017 480.195 13.7386 483.174 2.48925C483.583 0.945559 485.547 0.250434 487.104 0.654981C488.66 1.05953 489.876 2.23429 490.994 3.38222" fill="white"/>
<path fill-rule="evenodd" clip-rule="evenodd" d="M86.4754 55.1268C88.5843 74.11 94.4538 92.6716 103.648 109.433C109.341 119.812 116.265 129.461 123.171 139.082C127.976 145.776 133.115 152.753 140.613 156.213C142.607 157.133 142.329 159.995 141.794 162.117C139.481 171.289 138.402 180.77 138.594 190.225C138.612 191.118 138.636 192.044 138.283 192.866C137.087 195.655 132.987 195.19 130.165 194.049C112.702 186.991 99.2944 172.795 86.7699 158.772C70.5087 140.565 54.4895 121.558 44.8833 99.1488C44.2302 97.6253 43.5965 96.0221 43.7057 94.3692C43.817 92.6851 44.686 91.1543 45.5675 89.7127C54.2758 75.4708 66.3907 63.3097 80.6228 54.5236C81.6252 53.9048 82.6955 53.2846 83.8743 53.244C85.053 53.2034 86.3458 53.9595 86.4754 55.1268Z" fill="white"/>
<path fill-rule="evenodd" clip-rule="evenodd" d="M488.449 388.143C489.954 385.604 491.819 382.807 494.74 382.326C495.892 382.136 496.499 380.89 496.891 379.795C501.72 366.308 502.185 351.31 498.202 337.552C497.065 333.624 498.465 329.461 499.85 325.614C503.424 315.685 506.999 305.757 510.573 295.828C508.526 292.301 503.126 292.405 500.359 289.403C496.8 285.54 499.485 279.398 502.273 274.951C518.566 248.971 534.858 222.991 551.151 197.011C553.147 193.828 557.527 192.83 561.198 193.678C564.87 194.526 568.005 196.827 571.024 199.072C582.907 207.91 594.79 216.747 606.672 225.584C613.05 230.327 620.09 236.386 619.723 244.303C619.52 248.684 617.002 252.579 614.566 256.233C605.149 270.363 595.732 284.492 586.314 298.622C581.009 306.582 582.474 317.036 580.871 326.456C578.337 341.338 568.088 353.561 558.596 365.332C549.105 377.103 539.608 390.246 539.075 405.332C538.439 423.312 529.86 440.873 516.047 452.47C520.053 442.792 494.74 446.652 465.784 435.181C470.549 418.397 479.545 403.164 488.449 388.143Z" fill="white"/>
<path fill-rule="evenodd" clip-rule="evenodd" d="M170.495 430.236C168.689 428.765 168.114 426.283 167.795 423.975C164.107 397.279 179.944 370.928 177.123 344.125C175.669 330.313 169.295 317.425 161.275 306.09C155.736 298.262 155.425 287.776 157.492 278.411C159.558 269.045 163.727 260.288 166.538 251.118C179.041 210.343 163.828 166.782 148.786 126.875C178.759 112.443 213.734 115.238 246.939 117.193C280.143 119.149 315.854 119.287 343.528 100.823C347.321 140.766 338.957 180.754 330.641 220.005C372.84 215.911 415.038 211.818 457.237 207.724C458.448 207.607 459.771 207.516 460.776 208.2C462.118 209.113 462.324 210.975 462.401 212.596C464.373 254.136 465.569 295.712 465.988 337.297C465.998 338.34 465.962 339.503 465.227 340.242C464.598 340.876 463.638 341.008 462.751 341.107C403.629 347.667 344.507 354.227 285.386 360.787C280.273 361.355 272.99 360.029 273.289 354.89C274.625 331.977 273.845 308.941 270.965 286.171C255.253 285.579 239.434 287.965 224.594 293.164C221.227 294.344 217.179 297.515 218.995 300.588C231.008 320.915 216.098 351.468 232.413 368.531C238.023 374.398 237.635 383.627 236.524 391.671C234.14 408.912 230.092 425.922 224.452 442.387C227.179 423.436 172.161 440.399 170.495 430.236Z" fill="white"/>
<path fill-rule="evenodd" clip-rule="evenodd" d="M1.39044 0.027503C1.44095 0.432168 1.22104 0.857086 0.860768 1.05098C0.573845 0.76515 0.286923 0.479319 0 0.193488C0.430133 0.00616455 0.917952 -0.0472655 1.37869 0.042483L1.39044 0.027503Z" fill="#00160A"/>
<path fill-rule="evenodd" clip-rule="evenodd" d="M277.318 392.252C278.325 392.566 279.319 392.955 280.196 393.539C281.842 394.637 282.963 396.341 284.038 397.998C284.808 399.186 285.59 400.397 285.974 401.759C286.391 403.234 286.316 404.808 286.037 406.314C285.168 411.007 282.26 415.289 278.209 417.839C274.159 420.389 269.027 421.169 264.397 419.939C263.495 419.699 262.588 419.373 261.894 418.751C261.312 418.229 260.919 417.534 260.56 416.84C258.674 413.199 257.403 409.154 257.548 405.06C257.693 400.966 259.383 396.823 262.585 394.25C266.603 391.021 272.392 390.712 277.318 392.252M271.672 416.628C274.191 416.247 276.407 414.609 277.855 412.522C279.302 410.434 280.045 407.931 280.402 405.42C280.605 403.986 280.624 402.342 279.607 401.306C278.998 400.686 278.129 400.41 277.295 400.161C274.164 399.228 270.589 398.435 267.785 400.106C265.742 401.323 264.603 403.578 263.571 405.713C262.362 408.214 262.661 411.37 264.318 413.602C265.974 415.834 268.917 417.044 271.672 416.628V416.628Z" fill="#00160A"/>
<path fill-rule="evenodd" clip-rule="evenodd" d="M392.36 279.617C392.404 279.085 392.469 278.514 392.822 278.113C393.168 277.721 393.712 277.58 394.223 277.461C407.38 274.411 420.97 273.218 434.46 273.928C436.178 274.019 438.388 274.598 438.501 276.307C439.153 286.107 439.805 295.907 440.456 305.708C440.489 306.203 440.506 306.753 440.187 307.136C439.928 307.448 439.508 307.568 439.115 307.67C425.084 311.313 410.294 312.031 395.974 309.765C395.605 309.706 395.217 309.638 394.931 309.399C394.585 309.11 394.463 308.641 394.364 308.202C392.253 298.847 391.575 289.173 392.36 279.617ZM395.463 295.874C395.721 299.575 396.501 303.24 397.772 306.727C399.039 306.909 400.294 307.171 401.556 307.384C412.439 309.218 423.569 307.373 434.451 305.529C435.223 305.398 436.069 305.224 436.546 304.606C437.033 303.973 436.968 303.093 436.88 302.301C436.505 298.924 436.131 295.547 435.756 292.17C435.726 291.898 435.687 291.606 435.502 291.403C435.277 291.157 434.91 291.118 434.576 291.096C426.844 290.589 419.086 291.163 411.358 291.738C407.087 292.055 402.815 292.372 398.544 292.69C397.54 292.764 396.4 292.912 395.822 293.734C395.397 294.339 395.411 295.138 395.463 295.874ZM395.583 281.75C394.908 283.908 394.786 286.237 395.234 288.453C395.314 288.851 395.428 289.271 395.731 289.543C396.181 289.945 396.868 289.878 397.466 289.791C404.743 288.73 412.099 288.202 419.454 288.215C420.491 288.217 420.81 286.826 420.798 285.793C420.782 284.279 420.765 282.765 420.748 281.252C420.739 280.376 420.695 279.411 420.093 278.772C419.369 278.005 418.16 278.029 417.106 278.109C414.669 278.295 412.232 278.48 409.796 278.665C408.63 278.754 405.539 279.542 404.118 279.635C401.644 280.028 399.17 280.421 396.697 280.814C396.433 280.856 396.155 280.905 395.951 281.077C395.754 281.245 395.661 281.503 395.583 281.75ZM428.209 288.335C430.143 288.359 432.079 288.167 433.97 287.762C434.42 287.665 434.893 287.543 435.214 287.214C435.686 286.732 435.681 285.975 435.647 285.303C435.547 283.351 435.447 281.4 435.347 279.448C435.311 278.752 435.232 277.968 434.686 277.532C434.205 277.149 433.526 277.172 432.912 277.214C430.762 277.359 428.612 277.505 426.461 277.651C426.121 277.674 425.763 277.702 425.479 277.89C424.958 278.233 424.88 278.95 424.865 279.572C424.817 281.64 424.902 283.712 425.119 285.77C425.182 286.366 425.269 286.993 425.639 287.465C426.216 288.201 427.272 288.323 428.209 288.335Z" fill="#8066FF"/>
<path fill-rule="evenodd" clip-rule="evenodd" d="M426.034 236.79C428.908 235.551 432.435 235.966 434.94 237.837C437.445 239.709 438.832 242.964 438.441 246.058C440.203 245.11 442.436 244.177 444.08 245.315C445.936 246.601 445.512 249.369 445.233 251.603C444.746 255.506 445.378 259.541 447.035 263.111C447.719 264.586 448.307 266.823 446.789 267.418C446.532 267.519 446.253 267.542 445.979 267.564C428.176 268.992 410.374 270.421 392.571 271.85C392.083 271.889 391.536 271.91 391.167 271.59C390.79 271.263 390.743 270.707 390.722 270.209C390.552 266.04 390.381 261.87 390.211 257.701C390.165 256.583 390.143 255.377 390.777 254.452C391.827 252.923 394.026 252.928 395.863 252.635C397.7 252.342 399.838 250.799 399.131 249.085C398.342 247.175 401.029 245.779 403.079 245.468C405.13 245.158 407.85 243.941 407.229 241.97C406.55 239.818 409.525 238.482 411.771 238.185C413.355 237.975 415.013 237.773 416.516 238.314C418.019 238.855 419.29 240.396 418.951 241.952C418.564 243.733 420.743 245.393 422.46 244.763C424.178 244.134 424.874 241.797 424.005 240.193C423.294 238.883 424.662 237.381 426.034 236.79ZM435.227 264.266C434.561 263.037 434.556 261.573 434.55 260.176C434.522 253.618 434.117 247.062 433.339 240.55C433.299 240.222 433.237 239.854 432.967 239.662C432.734 239.496 432.42 239.515 432.135 239.542C430.744 239.671 429.096 239.977 428.547 241.256C428.312 241.801 428.34 242.418 428.372 243.011C428.724 249.583 429.077 256.156 429.43 262.728C429.463 263.341 429.544 264.043 430.055 264.385C430.334 264.572 430.684 264.607 431.019 264.625C432.429 264.701 433.85 264.58 435.227 264.266ZM411.282 254.16C411.11 255.255 410.867 256.342 410.803 257.448C410.695 259.298 411.086 261.136 411.475 262.947C411.724 264.109 413.232 264.68 414.337 264.232C415.442 263.785 416.109 262.611 416.293 261.437C416.476 260.264 416.261 259.07 416.073 257.897C415.335 253.289 415.016 248.615 415.12 243.95C415.146 242.769 413.99 241.703 412.81 241.82C411.63 241.936 410.707 243.208 410.965 244.36C411.686 247.569 411.794 250.912 411.282 254.16ZM422.99 247.865C422.296 246.96 420.706 247.442 420.164 248.445C419.622 249.448 419.788 250.665 419.922 251.796C420.273 254.749 420.306 257.74 420.022 260.701C419.938 261.574 419.845 262.527 420.329 263.259C421.073 264.386 422.707 264.376 424.054 264.239C424.477 264.197 424.962 264.115 425.175 263.749C425.323 263.494 425.288 263.178 425.248 262.886C424.627 258.293 424.006 253.699 423.384 249.106C423.325 248.671 423.258 248.214 422.99 247.865ZM438.411 249.839C437.888 250.549 437.778 251.474 437.732 252.353C437.576 255.368 437.978 258.381 438.378 261.373C438.536 262.553 439.077 264.068 440.269 263.988C441.477 263.906 441.793 262.297 441.764 261.092C441.69 257.9 441.616 254.708 441.541 251.516C441.522 250.677 441.433 249.704 440.733 249.236C440 248.744 438.934 249.129 438.411 249.839ZM401.92 249.085C401.92 249.085 402.451 253.251 402.636 255.374C402.868 258.038 403.164 260.697 403.523 263.348C403.576 263.733 403.645 264.15 403.93 264.415C404.425 264.874 406.332 264.569 406.684 263.994C407.035 263.418 407.016 262.7 406.985 262.027C406.888 259.9 406.791 257.772 406.695 255.644C406.591 253.364 406.046 248.445 406.046 248.445M395.001 264.169C395.154 264.647 395.334 265.146 395.721 265.465C396.478 266.088 397.704 265.703 398.3 264.926C398.896 264.15 399.031 263.127 399.145 262.156C399.284 260.965 399.42 259.727 399.032 258.592C398.645 257.456 397.573 256.457 396.373 256.563C395.27 256.66 394.415 257.664 394.158 258.736C393.9 259.809 394.117 260.934 394.385 262.005C394.567 262.732 394.773 263.455 395.001 264.169Z" fill="#8066FF"/>
<path fill-rule="evenodd" clip-rule="evenodd" d="M467.168 93.5816C465.731 95.7299 464.173 97.906 461.949 99.2324C459.725 100.559 456.654 100.817 454.656 99.1728C452.451 97.3586 452.315 94.0881 452.489 91.2455C452.556 90.1511 452.645 89.0479 452.96 87.9973C453.506 86.175 454.699 84.62 455.944 83.178C457.454 81.4287 459.127 79.7412 461.223 78.7567C463.318 77.7723 465.922 77.5994 467.885 78.8243C470.236 80.2904 471.105 83.4091 470.66 86.1347C470.215 88.8604 468.706 91.2835 467.168 93.5816M462.604 95.8545C464.416 93.9323 465.971 91.7693 467.213 89.4409C468.03 87.9086 468.726 86.2432 468.693 84.5084C468.661 82.7737 467.742 80.9605 466.124 80.3167C464.016 79.4783 461.702 80.8195 459.941 82.2446C458.687 83.2592 457.473 84.372 456.669 85.7673C456.16 86.6496 455.83 87.6203 455.502 88.584C454.883 90.407 454.255 92.3066 454.49 94.2167C454.726 96.1268 456.099 98.0444 458.022 98.2423C459.801 98.4255 461.379 97.1531 462.604 95.8545Z" fill="#8066FF"/>
<path fill-rule="evenodd" clip-rule="evenodd" d="M96.9169 117.863C99.1686 120.133 101.027 122.79 102.387 125.68C103.753 128.584 102.376 132.317 99.694 134.093C97.0124 135.87 93.3867 135.847 90.4463 134.537C87.5059 133.228 85.1952 130.784 83.4934 128.061C82.2104 126.008 81.2155 123.707 81.1089 121.292C81.0022 118.876 81.8954 116.334 83.8146 114.852C85.7558 113.354 88.4853 113.14 90.8328 113.859C93.1804 114.578 95.1914 116.122 96.9169 117.863M88.1315 116.481C86.1833 116.282 84.4526 118.062 84.1183 119.984C83.7841 121.905 84.5198 123.855 85.4717 125.559C87.536 129.255 91.2191 132.538 95.4612 132.333C97.6419 132.228 100.032 130.724 99.9934 128.551C99.9767 127.611 99.511 126.744 99.0459 125.926C97.8103 123.752 96.4758 121.601 94.6935 119.844C92.9113 118.087 90.6264 116.737 88.1315 116.481Z" fill="#8066FF"/>
<path fill-rule="evenodd" clip-rule="evenodd" d="M267.167 403.758C268.731 402.575 270.677 401.809 272.637 401.935C274.597 402.061 276.537 403.181 277.357 404.958C278.237 406.865 277.689 409.235 276.316 410.828C274.943 412.421 272.874 413.301 270.786 413.591C269.361 413.789 267.662 413.611 266.882 412.407C266.506 411.827 266.421 411.111 266.345 410.424C266.209 409.191 266.073 407.957 265.937 406.724C265.88 406.201 265.824 405.659 265.993 405.161C266.191 404.575 266.673 404.132 267.167 403.758M273.355 407.306C273.582 407.132 273.82 406.944 273.919 406.676C274.237 405.817 272.991 405.247 272.073 405.267C270.739 405.297 269.03 406.192 269.438 407.456C269.674 408.188 270.579 408.526 271.339 408.392C272.098 408.257 272.743 407.774 273.355 407.306H273.355Z" fill="#00160A"/>
<path fill-rule="evenodd" clip-rule="evenodd" d="M488.71 9.39333C500.896 21.9544 510.515 36.9744 516.811 53.2748C517.244 54.3944 517.663 55.638 517.251 56.765C514.074 65.4422 507.944 72.6763 501.933 79.7103L490.411 93.1945C486.744 97.4853 483.077 101.777 479.287 105.96C459.988 127.258 437.184 145.881 410.773 157.339C409.776 157.772 408.707 158.203 407.634 158.03C406.56 157.857 405.555 156.82 405.836 155.774C409.101 143.62 412.387 130.914 409.767 118.606C409.135 115.637 408.43 111.9 410.894 110.113C430.841 95.6504 445.202 74.9777 458.965 54.5857C462.426 49.4582 465.878 44.3166 468.94 38.9438C474.377 29.4045 478.565 19.1599 481.363 8.5512C481.747 7.09542 483.593 6.43987 485.056 6.82138C486.518 7.20289 487.66 8.31076 488.71 9.39333ZM480.182 24.992C478.944 24.482 477.801 25.8612 477.171 27.0385C476.488 28.3128 475.805 29.5892 475.122 30.8665C462.496 54.481 449.677 78.4577 430.436 97.0574C428.618 98.8147 426.586 100.938 426.921 103.438C427.995 111.454 423.697 119.92 416.578 123.811C413.345 125.578 413.384 130.137 413.857 133.778C414.047 135.236 414.6 137.063 416.071 137.187C420.385 137.549 424.526 139.663 427.339 142.942C428.226 143.976 429.908 143.329 431.064 142.605C460.172 124.385 482.537 97.4719 504.374 71.0291C505.127 70.1168 505.929 68.9674 505.536 67.853C502.231 58.4803 502.761 47.8286 506.979 38.8268C504.49 33.8956 501.524 29.2035 498.135 24.8366C492.496 27.2743 485.863 27.3317 480.182 24.992ZM411.142 152.526C412.289 153.124 413.679 152.555 414.828 151.958C417.847 150.389 420.755 148.608 423.523 146.633C424.254 146.111 424.472 145.068 424.214 144.21C423.955 143.352 423.308 142.66 422.591 142.118C420.353 140.427 417.224 139.982 414.6 140.982C414.115 141.166 413.634 141.408 413.299 141.803C412.908 142.266 412.765 142.883 412.64 143.475C412.006 146.468 411.506 149.489 411.142 152.526ZM492.883 18.7509C490.905 14.9003 487.855 11.6028 484.163 9.32407C482.879 10.4513 482.629 12.1641 482.375 13.9102V13.9105L482.375 13.9117C482.2 15.1094 482.023 16.3228 481.508 17.3735C481.34 17.7159 481.135 18.0433 480.931 18.3701C480.541 18.9921 480.153 19.6115 480.028 20.3259C479.837 21.4155 480.763 22.7825 481.813 22.4219C482.667 22.1288 483.562 22.3171 484.465 22.507C484.941 22.6072 485.42 22.7079 485.895 22.7385C488.667 22.9166 490.968 20.7542 492.883 18.7509ZM508.559 41.8298C506.44 46.0261 506.775 50.9822 507.16 55.6632L507.713 62.3764C507.773 63.1147 508.177 64.1109 508.892 63.9064C509.336 62.6699 510.181 61.6498 511.028 60.6269C511.769 59.7322 512.512 58.8355 512.99 57.79C514.607 54.2494 512.812 50.1689 511.043 46.7008L508.559 41.8298ZM413.717 116.339C413.805 117.652 415.175 118.635 416.496 118.598C417.817 118.561 419.007 117.71 419.779 116.642C420.551 115.574 420.974 114.301 421.387 113.051L422.749 108.922C423.128 107.771 423.152 106.011 421.943 105.875C421.506 105.827 421.09 106.057 420.732 106.31C419.376 107.269 418.389 108.647 417.429 109.999L414.812 113.68C414.244 114.478 413.651 115.363 413.717 116.339ZM101.582 105.318C92.3874 88.5564 86.5179 69.9948 84.409 51.0116C84.2794 49.8444 82.9866 49.0882 81.8079 49.1288C80.6291 49.1694 79.5588 49.7896 78.5564 50.4084C64.3243 59.1945 52.2094 71.3556 43.5011 85.5975C42.6196 87.039 41.7506 88.5699 41.6393 90.254C41.5301 91.9068 42.1638 93.5101 42.8169 95.0336C52.4231 117.443 68.4423 136.45 84.7035 154.657C97.228 168.68 110.635 182.875 128.098 189.934C130.921 191.075 135.02 191.54 136.217 188.75C136.565 187.939 136.547 187.026 136.528 186.143L136.528 186.109C136.335 176.654 137.414 167.174 139.727 158.002C140.262 155.88 140.541 153.018 138.547 152.098C131.049 148.638 125.91 141.661 121.104 134.967C114.199 125.346 107.274 115.696 101.582 105.318ZM117.813 178.587C116.78 178.862 115.748 178.213 114.886 177.584C98.992 165.989 86.6752 150.295 74.5736 134.813L53.2174 107.491C56.8222 105.205 57.2799 100.238 57.3585 95.983C57.4607 90.4524 57.5352 84.7582 55.5287 79.6C55.0828 78.4536 55.6634 77.183 56.2851 76.1208C58.9517 71.5651 62.6496 67.6118 67.0243 64.6402C67.4479 64.3525 67.8961 64.0667 68.4038 63.9953C69.7434 63.8068 70.7712 65.1042 71.4871 66.2473C74.3147 70.762 78.2006 75.8677 83.531 75.496C85.5607 75.3544 86.6862 77.7349 87.2783 79.6731C94.6414 103.776 108.466 125.516 124.678 144.858C126.785 147.371 127.314 150.763 127.837 154.125C128.421 157.873 128.999 161.583 131.754 163.993C134.105 166.051 133.668 169.747 133.034 172.799C132.904 173.424 132.749 174.093 132.273 174.519C131.919 174.836 131.441 174.968 130.981 175.09L117.813 178.587ZM80.1334 69.9127C77.2177 67.8842 74.6992 65.2921 72.7596 62.3234C72.3401 61.6813 71.9325 60.9616 72.0062 60.199C72.0863 59.3699 72.7128 58.7064 73.3362 58.1509C74.8756 56.7791 76.6154 55.6307 78.4838 54.753C79.168 54.4316 80.0514 54.1706 80.6198 54.6677C80.9544 54.9604 81.06 55.428 81.1474 55.8629L83.8404 69.2735C83.9996 70.0663 83.1644 70.7803 82.3527 70.8033C81.5411 70.8263 80.799 70.3758 80.1334 69.9127ZM53.4838 95.8511C53.4267 98.3736 53.2332 101.204 51.3347 102.875C50.9373 102.922 50.6735 102.488 50.5178 102.121C49.1499 98.8971 47.763 95.5953 47.5476 92.1017C47.3322 88.6082 48.508 84.8252 51.3751 82.8002C51.7631 82.5261 52.3321 82.2998 52.6746 82.6286C52.8122 82.7607 52.871 82.9524 52.9212 83.1361C53.7003 85.9876 53.639 88.9905 53.5722 91.9449L53.4838 95.8511ZM130.853 179.756C131.314 180.131 131.363 180.802 131.375 181.394L131.512 187.878C128.841 186.403 126.282 184.728 123.864 182.87C123.405 182.518 122.902 181.947 123.182 181.443C123.322 181.193 123.611 181.072 123.88 180.973C125.609 180.339 127.396 179.863 129.212 179.553C129.773 179.457 130.412 179.397 130.853 179.756ZM131.007 154.216C130.982 153.923 130.982 153.604 131.157 153.368C131.618 152.743 132.619 153.309 133.043 153.959C134.062 155.526 134.287 157.578 133.631 159.327C132.135 158.05 131.17 156.172 131.007 154.216ZM528.883 104.984C531.545 101.646 536.398 101.166 540.678 101.27C541.678 101.294 542.708 101.342 543.618 101.755C546.15 102.904 546.687 106.199 546.773 108.968C546.851 111.488 546.837 114.041 546.221 116.487C545.606 118.932 544.334 121.289 542.3 122.79C541.385 123.464 540.325 123.956 539.202 124.143C537.468 124.432 535.693 123.988 534.044 123.378C531.847 122.564 529.764 121.446 527.874 120.067C526.95 119.393 525.996 118.51 525.966 117.371C525.898 114.742 526.193 112.105 526.842 109.556C527.257 107.927 527.833 106.3 528.883 104.984ZM535.787 121.612C539.205 122.589 542.841 119.956 544.136 116.658C545.431 113.36 544.952 109.656 544.24 106.186C543.967 104.854 542.538 104.11 541.22 103.754C539.18 103.203 537.011 103.13 534.938 103.543C533.908 103.748 532.856 104.099 532.133 104.858C531.739 105.271 531.467 105.782 531.199 106.286L529.197 110.054C528.844 110.717 528.49 111.386 528.283 112.107C527.663 114.263 528.482 116.657 529.994 118.32C531.506 119.982 533.622 120.993 535.787 121.612ZM490.035 159.717C493.17 160.806 496.011 162.721 498.191 165.215C500.064 167.359 501.491 170.141 501.097 172.955C500.953 173.988 500.57 174.974 500.134 175.922C498.48 179.513 495.636 182.954 491.73 183.65C489.682 184.015 487.569 183.578 485.599 182.91C483.32 182.138 481.147 181.055 479.161 179.702C478.107 178.984 477.061 178.131 476.599 176.946C476.28 176.129 476.271 175.229 476.283 174.353C476.312 172.186 476.457 169.983 477.215 167.952C478.175 165.382 480.053 163.261 482.045 161.367C482.846 160.606 483.696 159.856 484.725 159.448C486.408 158.78 488.325 159.123 490.035 159.717ZM493.24 178.604C495.506 176.372 496.824 173.137 496.465 169.984C496.106 166.83 493.963 163.872 490.965 162.795C489.719 162.348 488.337 162.223 487.061 162.575C486.373 162.764 485.727 163.087 485.124 163.469C482.544 165.103 480.732 167.891 480.292 170.904C479.852 173.917 480.792 177.103 482.798 179.401C484.083 180.872 486.18 181.503 488.123 181.259C490.066 181.014 491.848 179.976 493.24 178.604ZM207.149 141.129C207.043 139.643 205.047 139.253 203.551 139.297C195.696 139.527 187.851 140.113 180.05 141.052C178.768 141.207 178.664 143.264 179.693 144.041C180.721 144.818 182.154 144.674 183.432 144.492L207.149 141.129ZM182.038 151.182C182.105 150.417 183.072 150.14 183.839 150.053L230.105 144.836C230.942 144.742 231.833 144.657 232.586 145.032C233.339 145.407 233.825 146.433 233.333 147.114C232.97 147.616 232.275 147.718 231.657 147.777L184.336 152.35C183.352 152.445 181.951 152.163 182.038 151.182ZM285.76 158.942C283.171 159.509 280.515 158.579 278.032 157.655C270.005 154.668 262.009 151.598 254.046 148.447C250.832 147.175 247.304 149.08 244.413 150.971C236.046 156.444 227.99 162.388 220.298 168.767C218.322 170.405 215.281 169.256 213.288 167.637C212.867 167.295 212.452 166.93 212.036 166.564C210.484 165.198 208.912 163.815 206.904 163.531C203.818 163.095 201.103 165.424 198.867 167.587L184.446 181.532C182.506 183.408 180.465 186.411 182.191 188.483C183.33 189.85 185.421 189.78 187.193 189.576C196.444 188.508 205.65 187.011 214.853 185.514H214.853H214.853H214.854H214.854H214.854H214.854H214.854H214.854H214.854H214.854H214.855H214.855C230.064 183.04 245.265 180.568 260.648 180.038C264.057 179.92 267.469 179.899 270.88 179.877C273.016 179.864 275.152 179.85 277.288 179.813C286.92 179.646 296.545 179 306.113 177.877C306.575 177.823 307.102 177.728 307.342 177.331C307.524 177.03 307.479 176.651 307.427 176.305L303.374 148.847C303.168 147.452 302.809 145.84 301.528 145.237C300.235 144.628 298.711 145.413 297.649 146.368C295.987 147.863 294.707 149.847 293.444 151.805L293.444 151.805C291.373 155.017 289.348 158.157 285.76 158.942ZM219.944 173.966C228.6 166.88 237.625 160.241 246.972 154.086C248.891 152.822 251.224 151.528 253.368 152.358L276.032 161.127C279.814 162.59 283.951 164.073 287.834 162.899C292.348 161.535 295.046 157.063 297.32 152.947C297.762 152.147 299.048 152.239 299.685 152.897C300.322 153.554 300.483 154.522 300.614 155.426L302.273 166.877C302.527 168.635 302.778 170.46 302.267 172.162C301.757 173.864 300.258 175.41 298.474 175.376C269.302 174.815 240.072 177.21 211.384 182.512C210.497 182.676 209.609 182.843 208.721 183.01L208.717 183.011L208.717 183.011C201.864 184.299 194.985 185.592 188.021 185.616C191.384 180.872 195.645 176.844 199.877 172.849C202.201 170.656 205.106 168.29 208.225 169.008C209.91 169.395 211.202 170.6 212.487 171.799C212.9 172.184 213.311 172.568 213.735 172.924C215.479 174.39 218.181 175.41 219.944 173.966ZM594.208 253.841C593.435 254.128 592.571 253.932 591.783 253.685C586.448 252.016 582.116 248.281 577.858 244.611L577.853 244.607C577.278 244.111 576.705 243.617 576.13 243.129C569.075 237.137 561.419 231.847 553.312 227.364C552.487 226.908 551.622 226.428 551.117 225.634C550.612 224.841 550.627 223.633 551.406 223.104C555.041 220.632 557.399 216.391 557.572 212.012C557.618 210.845 558.943 210.067 560.112 210.16C561.281 210.254 562.3 210.954 563.257 211.63L600.3 237.812C601.021 238.321 601.797 238.912 601.974 239.775C602.118 240.479 601.822 241.191 601.524 241.846C599.926 245.356 598.089 248.758 596.029 252.02C595.562 252.759 595.029 253.536 594.208 253.841ZM557.149 222.781C556.713 223.546 556.337 224.652 557.042 225.181L587.27 247.843C588.926 249.085 591.498 250.248 592.802 248.644C594.298 246.802 595.696 244.881 596.988 242.89C597.341 242.346 597.701 241.724 597.574 241.088C597.458 240.508 596.968 240.086 596.506 239.714C585.412 230.757 573.667 222.602 561.391 215.332L557.149 222.781ZM542.105 236.64C542.594 235.806 543.186 234.894 544.133 234.689C544.858 234.533 545.595 234.842 546.262 235.164C549.902 236.925 553.236 239.31 556.072 242.184C556.754 242.875 556.839 243.988 556.535 244.909C556.231 245.83 555.605 246.606 554.991 247.358C554.005 248.568 552.954 249.826 551.499 250.4C549.929 251.02 548.102 250.721 546.615 249.924C545.128 249.127 543.934 247.879 542.882 246.563C541.51 244.847 540.281 242.789 540.494 240.605C540.634 239.174 541.378 237.882 542.105 236.64ZM548.472 246.249C550.761 247.136 552.225 246.433 552.285 244.938C552.323 243.995 551.497 243.269 550.745 242.693L548.472 240.952C547.72 240.376 546.891 239.773 545.943 239.779C544.995 239.785 544.03 240.759 544.418 241.62C544.36 242.036 546.182 245.363 548.472 246.249ZM539.436 264.65C539.994 264.955 540.586 265.253 541.222 265.266C541.859 265.279 542.548 264.92 542.705 264.306C543.072 262.864 544.03 261.669 544.968 260.499C545.07 260.371 545.172 260.243 545.273 260.116C546.301 258.821 547.292 257.355 547.32 255.705C547.347 254.055 545.975 252.297 544.333 252.522C543.04 252.699 541.837 251.855 540.898 250.952C540.748 250.808 540.599 250.661 540.45 250.513C539.664 249.732 538.865 248.938 537.821 248.6C536.58 248.197 534.889 248.838 534.791 250.134C534.593 252.745 532.414 254.711 530.392 256.385C529.787 256.886 530.334 257.848 530.899 258.392C533.448 260.845 536.327 262.956 539.436 264.65ZM539.84 259.676L535.858 256.994C534.846 256.312 534.928 254.642 535.83 253.821C536.732 253.001 538.135 252.938 539.286 253.349C540.436 253.759 541.394 254.565 542.323 255.355C542.938 255.878 543.023 256.83 542.742 257.585C542.46 258.34 541.887 258.945 541.329 259.528C541.137 259.728 540.924 259.939 540.649 259.974C540.357 260.012 540.084 259.84 539.84 259.676ZM571.403 259.852L573.349 255.734C573.945 254.473 574.523 252.912 573.718 251.772C573.439 251.376 573.027 251.097 572.624 250.826L565.541 246.074C564.777 245.561 563.949 245.029 563.028 245.043C561.937 245.06 561.022 245.836 560.247 246.601C559.086 247.747 558.001 248.969 557.001 250.256C556.239 251.236 555.614 252.848 556.654 253.528L567.492 260.608C568.347 261.167 569.433 261.741 570.332 261.255C570.859 260.969 571.147 260.393 571.403 259.852ZM569.001 256.937C568.546 257.041 568.071 256.926 567.623 256.792C564.887 255.971 562.383 254.399 560.459 252.294C559.819 251.594 560.181 250.359 560.994 249.868C561.807 249.377 562.864 249.49 563.74 249.857C564.306 250.093 564.824 250.423 565.343 250.753L565.343 250.753C565.627 250.934 565.911 251.115 566.204 251.281C566.519 251.459 566.847 251.623 567.175 251.787C568.106 252.251 569.039 252.717 569.674 253.521C570.533 254.609 570.355 256.627 569.001 256.937ZM572.661 261.537C573.91 261.241 574.292 259.973 574.689 258.655C575.016 257.566 575.354 256.443 576.201 255.805C577.658 254.709 579.722 255.625 581.292 256.555L586.284 259.513C587.08 259.984 587.895 260.472 588.465 261.198C589.036 261.923 589.316 262.951 588.917 263.783C588.651 264.338 588.147 264.707 587.64 265.077C587.224 265.381 586.805 265.687 586.513 266.1C586.138 266.629 585.998 267.293 585.86 267.949C585.687 268.772 585.516 269.582 584.885 270.1C583.736 271.043 582.027 270.287 580.757 269.514L573.723 265.234C573.013 264.802 572.265 264.328 571.917 263.577C571.568 262.825 571.852 261.729 572.661 261.537ZM581.883 265.787C582.89 265.444 583.699 264.701 584.477 263.977C585.04 263.452 584.286 262.588 583.614 262.211L579.305 259.795C578.855 259.543 578.23 259.314 577.881 259.692C576.758 260.912 576.595 262.902 577.505 264.287C578.414 265.672 580.31 266.321 581.883 265.787ZM532.439 265.637C531.474 265.366 530.492 265.09 529.704 264.555C528.48 263.725 526.777 263.926 525.493 264.66C524.209 265.395 523.251 266.572 522.324 267.722C521.81 268.36 521.282 269.026 521.085 269.821C520.889 270.615 521.123 271.578 521.841 271.977L529.356 276.147C529.925 276.463 530.561 276.79 531.196 276.649C531.83 276.51 532.267 275.949 532.648 275.427L534.582 272.778C535.658 271.303 536.782 269.424 535.995 267.778C535.365 266.459 533.922 266.054 532.439 265.637ZM530.06 272.499C529.667 272.602 529.263 272.414 528.901 272.23L523.781 269.636C524.766 268.249 526.638 267.716 528.335 267.884C530.033 268.052 531.609 268.804 533.144 269.543L530.791 271.976C530.58 272.194 530.354 272.422 530.06 272.499ZM494.593 168.761C495.385 169.965 495.137 171.573 494.611 172.914C493.918 174.68 492.747 176.317 491.092 177.257C489.438 178.197 487.265 178.334 485.652 177.324C484.04 176.314 483.231 174.068 484.095 172.377C484.294 171.986 484.567 171.64 484.84 171.294C485.1 170.962 485.362 170.63 485.559 170.26C485.689 170.015 485.79 169.756 485.891 169.498C486.037 169.125 486.182 168.753 486.413 168.427C487.234 167.27 488.85 167.042 490.273 167.063C491.886 167.085 493.708 167.417 494.593 168.761ZM490.991 169.526C488.783 169.498 486.713 171.341 486.494 173.529C486.405 174.423 486.786 175.534 487.68 175.657C488.349 175.75 488.937 175.234 489.387 174.732C490.339 173.669 491.157 172.488 491.815 171.223C492.036 170.799 492.231 170.255 491.94 169.874C491.729 169.597 491.34 169.53 490.991 169.526ZM543.789 112.197C543.619 110.184 542.267 108.205 540.302 107.7C537.807 107.06 535.389 108.809 533.408 110.45C532.822 110.936 532.21 111.458 531.962 112.175C531.541 113.393 532.298 114.676 533.044 115.728C533.899 116.933 534.812 118.144 536.058 118.94C537.305 119.736 538.968 120.045 540.276 119.353C540.942 119.001 541.461 118.424 541.912 117.821C543.123 116.201 543.959 114.21 543.789 112.197ZM538.255 117.357C537.41 117.483 536.533 117.143 535.91 116.559C534.977 115.685 534.608 114.279 534.933 113.046C535.276 111.747 536.371 110.674 537.681 110.354C538.991 110.033 540.461 110.479 541.369 111.472C541.335 111.742 541.306 112.014 541.278 112.287V112.287C541.182 113.212 541.085 114.14 540.763 115.009C540.347 116.134 539.447 117.179 538.255 117.357ZM471.092 431.311C475.692 415.105 484.378 400.398 492.975 385.894C494.428 383.443 496.229 380.743 499.05 380.278C500.161 380.095 500.748 378.892 501.126 377.835C505.789 364.813 506.238 350.331 502.392 337.047C501.294 333.256 502.646 329.236 503.983 325.521L514.337 296.762C513.26 294.908 511.224 294.093 509.161 293.268C507.436 292.577 505.691 291.88 504.475 290.559C501.038 286.829 503.63 280.899 506.323 276.605L553.515 201.352C555.443 198.279 559.672 197.315 563.216 198.134C566.761 198.953 569.788 201.174 572.704 203.343L607.122 228.94C613.28 233.52 620.078 239.369 619.723 247.014C619.527 251.244 617.096 255.004 614.744 258.532L587.467 299.46C583.939 304.752 583.512 311.186 583.082 317.649C582.887 320.573 582.693 323.502 582.211 326.334C579.858 340.153 570.616 351.596 561.761 362.56C561.554 362.818 561.346 363.075 561.139 363.332C560.994 363.511 560.849 363.691 560.704 363.87C551.54 375.235 542.371 387.925 541.856 402.491C541.242 419.851 532.959 436.807 519.621 448.004L531.227 419.969C533.988 413.302 536.543 405.007 531.924 399.453C529.834 396.939 526.676 395.61 523.644 394.371L505.618 387.008C504.376 386.5 503.094 385.984 501.751 385.976C497.563 385.951 495.072 390.473 493.374 394.284C487.5 407.47 479.999 419.935 471.092 431.311ZM530.362 393.237C533.452 394.377 537.804 395.069 539.268 392.129C546.356 377.902 553.639 363.401 564.922 352.175C571.425 345.704 575.412 337.071 577.667 328.197C579.922 319.322 580.561 310.132 581.191 301C578.453 301.992 578.215 305.671 578.226 308.572C578.252 314.968 577.129 321.367 574.926 327.375C574.465 328.632 573.846 329.991 572.612 330.522C571.378 331.052 569.559 329.987 569.974 328.713C573.158 318.94 574.345 308.527 573.441 298.292C573.161 295.119 572.567 291.724 570.301 289.475C570.547 294.486 570.793 299.519 570.283 304.509C569.4 313.144 566.291 321.377 563.209 329.495C562.809 330.549 562.325 331.698 561.309 332.194C560.292 332.689 558.714 331.904 558.981 330.809L563.595 311.813C566.133 301.368 568.628 290.133 564.7 280.124C562.722 279.992 562.256 282.808 562.432 284.775C563.643 298.245 559.903 311.614 556.2 324.625C555.768 326.144 554.238 328.044 553.049 326.999C552.537 326.548 552.513 325.772 552.555 325.092C552.788 321.266 553.842 317.562 554.894 313.862C555.22 312.713 555.547 311.565 555.849 310.414C558.631 299.803 559.34 288.657 557.926 277.781C555.488 280.892 554.454 284.838 553.478 288.663L547.686 311.367C545.067 321.63 541.721 332.913 532.641 338.426C531.918 338.865 531.079 339.273 530.255 339.079C529.231 338.837 528.65 337.783 528.223 336.825C522.428 323.829 521.704 308.666 526.235 295.181C526.51 294.362 525.674 293.507 524.81 293.439C523.946 293.371 523.137 293.84 522.429 294.338C514.995 299.561 512.147 309.023 509.782 317.771L506.637 329.404C506.178 331.103 505.716 332.817 505.62 334.574C505.475 337.244 506.175 339.857 506.872 342.456C507.033 343.058 507.194 343.66 507.345 344.261C510.369 356.346 509.003 369.472 503.554 380.683C502.75 382.336 504.871 383.839 506.601 384.477L530.362 393.237ZM542.107 282.22C540.867 281.37 539.539 280.399 539.156 278.95C538.568 276.727 540.694 274.494 542.983 274.195C545.271 273.896 547.51 274.996 549.407 276.306C552.079 278.151 555.46 275.338 557.46 272.785C554.762 271.178 552.188 268.683 552.081 265.553C551.975 262.424 555.796 259.444 558.339 261.285C559.326 262 560.519 262.437 561.7 262.87C563.468 263.518 565.208 264.155 566.178 265.697C567.281 267.451 566.889 269.823 565.766 271.564C564.642 273.306 562.914 274.556 561.226 275.764C563.649 276.003 566.007 276.863 568.012 278.239L570.197 271.9C570.367 271.408 570.551 270.894 570.939 270.546C571.688 269.877 572.853 270.084 573.812 270.387C576.328 271.182 578.796 272.423 580.456 274.466C582.117 276.509 582.809 279.477 581.649 281.838C580.488 284.199 577.213 285.457 574.994 284.034C574.534 283.739 574.072 283.344 573.609 282.95L573.609 282.949C572.372 281.894 571.135 280.839 569.941 281.683C573.587 284.51 576.091 288.757 576.794 293.304C588.271 275.897 599.625 258.409 610.854 240.843C611.926 239.166 612.791 236.523 611.045 235.558C603.587 231.439 596.996 225.922 590.42 220.418C582.119 213.471 573.844 206.544 563.884 202.477C563.252 202.219 562.56 201.969 561.9 202.142C561.207 202.324 560.72 202.924 560.285 203.49C541.737 227.594 525.091 253.149 510.551 279.841C508.522 283.565 511.237 288.004 513.834 291.359C515.132 293.035 517.637 294.807 519.052 293.227C520.836 291.237 523.761 290.099 526.287 290.987C528.813 291.876 530.384 295.148 529.011 297.438C528.017 299.094 529.962 300.936 531.662 301.863C535.057 303.715 538.54 305.408 542.096 306.934C542.59 307.146 543.165 307.354 543.647 307.114C544.105 306.885 544.291 306.342 544.434 305.852L548.373 292.358C549.02 290.138 549.454 287.258 547.542 285.947L542.107 282.22ZM612.565 244.392C612.042 244.214 611.564 244.735 611.257 245.192L581.766 289.149C580.973 290.331 580.16 291.561 579.929 292.964C579.697 294.367 580.215 295.999 581.498 296.624C583.621 297.658 585.843 295.484 587.206 293.561L614.607 254.892C616.642 252.021 614.92 248.096 613.178 245.04C613.028 244.776 612.853 244.491 612.565 244.392ZM529.533 303.089C529.014 302.713 528.237 302.937 527.803 303.408C527.368 303.879 527.19 304.524 527.027 305.142C526.624 306.664 526.219 308.201 526.159 309.774C526.099 311.347 526.386 312.91 526.672 314.458L529.496 329.744C529.614 330.384 529.753 331.066 530.209 331.532C530.666 331.999 531.555 332.101 531.924 331.563C536.104 325.476 540.343 319.27 542.53 312.225C542.802 311.349 542.88 310.118 542.019 309.795C537.579 308.132 533.367 305.869 529.533 303.089ZM562.146 265.375C560.731 264.033 558.86 263.175 556.915 262.978C555.142 262.798 554.119 265.277 554.928 266.858C555.738 268.439 557.525 269.223 559.18 269.883C560.347 270.349 561.764 270.788 562.782 270.052C564.245 268.995 563.455 266.617 562.146 265.375ZM550.503 283.088C551.081 282.679 551.156 281.843 550.994 281.157C550.385 278.569 547.536 277.247 544.978 276.49C543.989 276.197 542.758 275.992 542.06 276.75C541.478 277.383 541.602 278.431 542.104 279.128C542.606 279.826 543.392 280.256 544.151 280.663L548.102 282.782C548.853 283.185 549.808 283.58 550.503 283.088ZM572.985 273.763C572.148 274.878 572.233 276.5 572.931 277.706C573.63 278.912 574.838 279.749 576.113 280.32C576.551 280.515 577.03 280.687 577.5 280.594C577.905 280.514 578.251 280.242 578.498 279.914C579.411 278.699 578.967 276.87 577.922 275.767C576.876 274.664 575.388 274.112 573.956 273.595C573.709 273.505 573.421 273.419 573.196 273.554C573.11 273.605 573.044 273.683 572.985 273.763ZM176.731 374.859C177.278 370.834 178.044 366.404 181.221 363.854C183.753 361.821 187.231 361.497 190.483 361.435C201.138 361.231 211.828 362.954 221.874 366.494C225.052 367.614 228.378 369.09 230.116 371.966C231.997 375.08 231.539 379.008 231.019 382.605L222.949 438.42C228.513 422.256 232.508 405.557 234.859 388.631C235.956 380.734 236.339 371.674 230.804 365.914C222.164 356.923 222.399 344.116 222.639 331.094C222.846 319.855 223.055 308.457 217.565 299.213C215.773 296.196 219.767 293.082 223.089 291.924C237.73 286.82 253.338 284.478 268.84 285.059C271.682 307.413 272.45 330.028 271.133 352.522C270.838 357.567 278.023 358.869 283.067 358.312L458.06 338.991C458.935 338.894 459.882 338.764 460.503 338.142C461.228 337.416 461.263 336.274 461.253 335.251C460.84 294.426 459.66 253.609 457.714 212.829C457.638 211.237 457.435 209.409 456.112 208.513C455.119 207.841 453.814 207.93 452.62 208.046L327.717 220.102C335.923 181.568 344.175 142.312 340.432 103.098C313.128 121.225 277.895 121.089 245.135 119.169C243.773 119.09 242.409 119.008 241.042 118.927C209.515 117.051 176.638 115.095 148.296 128.674C163.136 167.852 178.146 210.617 165.81 250.647C164.719 254.188 163.42 257.667 162.122 261.145C160.121 266.506 158.121 271.863 156.885 277.44C154.846 286.635 155.152 296.93 160.617 304.614C168.531 315.742 174.819 328.394 176.253 341.954C177.614 354.822 174.573 367.584 171.535 380.331C168.361 393.65 165.191 406.953 167.05 420.345C167.364 422.611 167.933 425.048 169.714 426.491L176.731 374.859ZM189.111 213.161C192.421 213.277 193.736 217.414 194.159 220.684L197.51 246.579C190.968 243.201 181.765 248.934 181.953 256.268C176.44 245.674 175.603 233.532 174.774 221.514C174.593 218.899 174.413 216.29 174.186 213.704C171.752 186.053 163.383 159.307 155.065 132.814C153.879 129.036 159.002 126.586 162.935 126.012C188.744 122.244 214.866 122.764 241 123.285C252.845 123.521 264.693 123.757 276.516 123.593C297.524 123.303 319.752 121.324 336.792 109.087C340.623 134.511 335.417 160.162 330.277 185.49C329.582 188.916 328.887 192.336 328.217 195.749C322.591 224.392 318.761 254.923 329.526 282.07C329.98 283.213 328.433 284.076 327.224 284.327C318.371 286.166 309.216 286.562 300.236 285.495C296.384 285.037 292.572 284.313 288.76 283.59C285.889 283.045 283.017 282.5 280.128 282.068C258.376 278.818 235.671 282.191 215.819 291.622C215.023 292 214.077 291.823 213.244 291.536C209.223 290.15 206.355 286.452 204.924 282.462C203.493 278.473 203.288 274.167 203.097 269.934L202.296 252.185C202.268 251.547 202.435 250.681 203.076 250.661C237.852 249.579 272.589 247.245 307.195 243.664C305.732 235.511 305.587 227.125 306.767 218.927C307.512 213.752 302.624 209.033 297.42 208.34C292.215 207.648 287.068 209.995 282.747 212.965C281.13 214.076 279.578 215.283 278.026 216.489C275.43 218.507 272.837 220.523 269.95 222.085C268.06 223.108 265.787 223.932 263.802 223.107C261.373 222.096 260.559 219.219 259.832 216.651C259.787 216.489 259.741 216.329 259.696 216.171C258.749 212.863 257.185 209.571 254.434 207.491C251.683 205.411 247.532 204.893 244.817 207.019C242.496 208.837 241.762 211.984 241.373 214.899C241.338 215.159 241.305 215.419 241.271 215.681C240.926 218.361 240.57 221.131 238.963 223.28C237.2 225.639 233.266 226.65 231.332 224.428C227.507 220.033 220.796 219.111 215.165 220.653C209.534 222.196 204.715 225.758 200.043 229.248C197.224 224.856 196.991 218.942 199.455 214.344L199.497 214.267C199.96 213.404 200.492 212.413 200.082 211.533C199.829 210.989 199.269 210.655 198.715 210.418C195.402 209.004 191.168 210.213 189.111 213.161ZM288.685 287.386C290.538 287.754 292.815 288.577 292.93 290.454C294.022 308.362 308.315 324.454 325.887 328.417C343.46 332.381 362.934 324.366 373.18 309.609C383.427 294.852 384.229 274.351 375.827 258.481C366.817 241.461 344.92 232.422 326.459 238.103C325.602 234.341 325.698 230.369 326.737 226.654C326.93 225.964 327.181 225.242 327.74 224.792C328.287 224.352 329.025 224.252 329.722 224.168L381.728 217.931C386.3 217.383 390.883 216.834 395.488 216.796C415.291 216.633 435.079 214.667 454.523 210.93C457.545 251.327 458.966 291.842 458.784 332.351C458.775 334.272 458.188 336.826 456.259 336.882C423.529 337.831 391.057 342.118 358.573 346.407C336.748 349.288 314.917 352.17 292.999 354.041C288.113 354.458 283.194 354.825 278.313 354.362C277.428 354.278 276.43 354.098 275.95 353.354C275.66 352.905 275.627 352.343 275.603 351.81L272.684 287.018C272.647 286.18 272.698 285.171 273.426 284.751C273.908 284.472 274.512 284.572 275.059 284.681L288.685 287.386ZM199.141 272.386C198.623 275.751 198.042 279.537 200.256 282.083C208.514 291.58 217.094 301.727 219.289 314.097C220.314 319.874 219.874 325.82 219.435 331.741C218.883 339.2 218.333 346.62 220.719 353.617C220.781 353.8 220.845 353.982 220.91 354.166C221.348 355.413 221.795 356.685 221.653 357.987C221.49 359.481 220.188 360.984 218.701 360.728L201.435 357.763C195.718 356.782 189.677 355.826 184.246 357.858C183.196 358.251 181.988 357.562 181.425 356.596C180.862 355.629 180.788 354.466 180.739 353.35C180.68 352.003 180.636 350.646 180.592 349.286C180.313 340.727 180.029 332.009 176.051 324.51L163.357 300.586C161.484 297.054 159.566 293.364 159.437 289.372C159.35 286.706 160.073 284.087 160.79 281.517L167.122 258.805C168.455 254.024 169.866 249.09 173.023 245.25C180.692 258.207 181.449 274.969 174.978 288.558C174.379 289.815 176.208 291.109 177.512 290.608C178.815 290.107 179.477 288.685 179.937 287.371C181.777 282.109 182.423 276.56 183.069 271.004C183.592 266.509 184.116 262.008 185.274 257.649C185.983 254.979 187.006 252.253 189.077 250.415C191.148 248.577 194.525 247.948 196.695 249.668C198.356 250.985 198.896 253.236 199.212 255.326C200.045 260.841 200.042 266.481 199.201 271.995C199.181 272.124 199.161 272.255 199.141 272.386ZM228.931 227.548C231.476 229.488 233.969 231.387 237.022 231.035C240.903 230.588 243.322 226.61 244.449 222.885C244.696 222.07 244.915 221.235 245.135 220.399C245.92 217.415 246.712 214.407 248.768 212.161C249.366 211.509 250.227 210.902 251.075 211.157C251.763 211.365 252.164 212.058 252.483 212.699C252.936 213.607 253.364 214.531 253.792 215.454C255 218.059 256.209 220.666 257.963 222.929C260.339 225.996 264.036 228.408 267.903 227.986C271.36 227.608 274.062 225.171 276.695 222.794C277.235 222.307 277.772 221.823 278.312 221.359C284.654 215.913 292.913 212.728 301.284 212.498C300.155 215.308 300.908 218.373 301.647 221.38C301.825 222.104 302.002 222.825 302.152 223.538C303.334 229.164 302.736 235.147 300.465 240.43L244.553 244.716C231.5 245.717 218.414 246.718 205.331 246.26C204.504 246.231 203.657 246.192 202.897 245.868C201.461 245.256 200.607 243.73 200.298 242.205C199.605 238.787 201.188 235.227 203.586 232.685C205.983 230.142 209.114 228.43 212.189 226.761C215.388 225.023 218.941 223.228 222.509 223.97C224.883 224.463 226.923 226.018 228.931 227.548ZM334.808 308.646C326.338 308.473 318.999 301.592 316.484 293.536C315.97 291.891 317.038 290.087 318.511 289.184C319.984 288.281 321.766 288.067 323.485 287.875L335.896 286.487C332.122 279.182 329.434 271.322 327.947 263.242C327.812 262.509 327.689 261.739 327.921 261.031C328.33 259.788 329.676 259.133 330.921 258.716C341.005 255.342 353.113 259.438 359.043 268.233C364.972 277.027 364.195 289.739 357.235 297.75C354.222 301.218 350.274 303.778 346.115 305.748C342.568 307.428 338.735 308.727 334.808 308.646ZM375.003 265.229C376.51 270.185 376.946 275.397 377.153 280.571C373.768 280.061 370.35 279.771 366.928 279.705C366.258 271.003 360.441 263.14 352.794 258.875C345.146 254.61 335.916 253.688 327.274 255.148C327.201 253.921 326.977 252.641 326.752 251.362C326.159 247.983 325.566 244.606 327.76 242.208C329.085 240.76 331.103 240.18 333.038 239.821C341.848 238.187 351.242 239.9 358.899 244.536C366.557 249.172 372.407 256.689 375.003 265.229ZM312.88 292.658C312.866 292.818 312.852 292.976 312.845 293.127C312.788 294.33 313.351 295.433 313.908 296.525C314.057 296.817 314.206 297.109 314.343 297.402C314.988 298.787 315.301 300.611 314.222 301.695C311.611 304.319 309.304 307.243 307.36 310.389C306.88 311.168 305.697 311.231 304.906 310.767C304.116 310.303 303.626 309.476 303.169 308.683C300.28 303.668 297.319 298.422 296.959 292.651C296.914 291.934 296.993 291.065 297.632 290.731C297.914 290.583 298.246 290.579 298.564 290.578L311.484 290.539C311.793 290.538 312.118 290.541 312.386 290.693C313.02 291.052 312.948 291.885 312.88 292.658Z" fill="#00160A"/>
</svg>
