<svg width="48" height="48" viewBox="0 0 48 48" fill="none" xmlns="http://www.w3.org/2000/svg">
<path fill-rule="evenodd" clip-rule="evenodd" d="M23.5878 21.8689C23.5878 21.8689 22.1905 16.9454 22.0942 17.4595C21.5551 20.339 21.5181 20.7297 21.5181 23.2787C7.29694 12.5278 19.1764 9.17456 20.6593 2C20.6593 2 32.5494 9.38686 23.5878 21.8689ZM15.1757 32.021C15.7784 37.0944 13.426 36.0873 10.6895 38.1831C10.6895 38.1831 8.9079 32.7287 14.1888 31.8523C14.1888 31.8523 12.1725 34.389 12.6846 33.9589C13.1967 33.5234 15.1757 32.021 15.1757 32.021ZM13.7354 18.1455C8.65718 20.4318 8.94523 17.563 5.88336 15.2713C5.88336 15.2713 10.9829 11.586 13.5967 17.0241C13.5967 17.0241 10.3108 15.6632 10.9296 16.077C11.5377 16.4907 13.7354 18.1455 13.7354 18.1455ZM28.3514 31.0031C28.49 38.624 31.76 36.6426 36.2354 39.1684C36.2354 39.1684 37.7664 30.7255 29.7809 30.5404C29.7809 30.5404 33.2696 33.8609 32.4267 33.3329C31.0803 32.5378 29.7182 31.7611 28.3514 31.0031ZM28.8954 13.6491C27.2952 6.19696 30.9225 7.35643 34.7098 3.8508C34.7098 3.8508 38.1131 11.7004 30.3837 13.7635C30.3837 13.7635 33.0242 9.70803 32.3254 10.4211C31.1965 11.5147 30.053 12.5872 28.8954 13.6491ZM22.0942 24.8084C12.2258 31.3678 18.3636 37.0811 19.9605 46C19.9605 46 32.272 39.3643 24.0733 26.3489C24.0733 26.3489 23.4918 35.3851 23.2998 33.5234C23.1078 31.6618 22.0942 24.8084 22.0942 24.8084ZM19.5551 24.6941C12.7859 34.7319 10.1454 29.1469 2 28.4773C2 28.4773 7.25427 15.8538 18.0562 22.8051C18.0562 22.8051 10.8342 23.2297 12.4132 23.2787C13.9975 23.3332 19.5551 24.6941 19.5551 24.6941ZM25.0921 25.2057C33.6483 36.6263 42.1085 19.2396 47 15.0808C36.5181 14.2207 32.6508 11.0199 25.4122 22.6908C25.4122 22.6908 30.3767 20.5329 28.8831 21.6216C27.3895 22.7103 25.0921 25.2057 25.0921 25.2057Z" fill="white"/>
</svg>
