<svg width="280" height="48" viewBox="0 0 280 48" fill="none" xmlns="http://www.w3.org/2000/svg">
<path fill-rule="evenodd" clip-rule="evenodd" d="M23.3843 21.6751C23.3843 21.6751 21.8707 16.304 21.7664 16.8649C21.1824 20.0062 21.1424 20.4324 21.1424 23.2132C5.73773 11.4848 18.6057 7.8268 20.2121 0C20.2121 0 33.0916 8.05839 23.3843 21.6751ZM14.2721 32.7502C14.925 38.2848 12.3769 37.1862 9.41265 39.4725C9.41265 39.4725 7.48274 33.5222 13.2031 32.5661C13.2031 32.5661 11.019 35.3334 11.5737 34.8643C12.1284 34.3892 14.2721 32.7502 14.2721 32.7502ZM12.712 17.6133C7.21117 20.1074 7.52319 16.9779 4.20651 14.4778C4.20651 14.4778 9.73045 10.4575 12.5618 16.39C12.5618 16.39 9.0024 14.9054 9.67267 15.3567C10.3314 15.808 12.712 17.6133 12.712 17.6133ZM28.5442 31.6397C28.6944 39.9535 32.2365 37.7919 37.0843 40.5473C37.0843 40.5473 38.7427 31.3369 30.0927 31.135C30.0927 31.135 33.8717 34.7574 32.9587 34.1814C31.5003 33.3139 30.0248 32.4666 28.5442 31.6397ZM29.1336 12.7082C27.4001 4.5785 31.3293 5.84338 35.4318 2.01905C35.4318 2.01905 39.1183 10.5822 30.7457 12.8329C30.7457 12.8329 33.6059 8.40876 32.8489 9.18669C31.6261 10.3797 30.3875 11.5497 29.1336 12.7082ZM21.7664 24.8819C11.0768 32.0376 17.7253 38.2703 19.4551 48C19.4551 48 32.7912 40.7611 23.9101 26.5624C23.9101 26.5624 23.2803 36.4201 23.0723 34.3892C22.8642 32.3583 21.7664 24.8819 21.7664 24.8819ZM19.016 24.7571C11.6835 35.7075 8.82328 29.6147 0 28.8843C0 28.8843 5.6915 15.1132 17.3923 22.6965C17.3923 22.6965 9.56937 23.1597 11.2797 23.2132C12.9958 23.2725 19.016 24.7571 19.016 24.7571ZM25.0137 25.3154C34.2819 37.7741 43.4461 18.8069 48.7447 14.27C37.3906 13.3317 33.2014 9.83991 25.3604 22.5718C25.3604 22.5718 30.7381 20.2177 29.1202 21.4054C27.5023 22.5931 25.0137 25.3154 25.0137 25.3154Z" fill="white"/>
<path d="M67.6665 41.6595C66.8435 41.6595 65.9731 41.5622 65.0552 41.3676C64.1373 41.2054 63.251 40.9622 62.3964 40.6378C61.5418 40.2811 60.7979 39.8757 60.1649 39.4216C59.5635 38.9351 59.1837 38.4 59.0254 37.8162C58.8988 37.4919 58.8513 37.1838 58.883 36.8919C58.9146 36.5676 59.0096 36.2432 59.1678 35.9189C59.3261 35.5622 59.5635 35.2054 59.88 34.8486C60.1649 34.4919 60.4498 34.2973 60.7346 34.2649C61.0512 34.2 61.4468 34.2973 61.9216 34.5568C62.3331 34.7189 62.7762 34.9297 63.251 35.1892C63.7574 35.4486 64.2639 35.7081 64.7703 35.9676C65.3084 36.227 65.8465 36.4378 66.3846 36.6C66.9543 36.7622 67.5082 36.8432 68.0463 36.8432C69.2175 36.8432 70.1512 36.6487 70.8476 36.2595C71.5439 35.8378 71.8921 35.2541 71.8921 34.5081C71.8921 34.0865 71.7813 33.7135 71.5598 33.3892C71.3382 33.0649 71.0375 32.8054 70.6577 32.6108C70.3095 32.3838 69.8822 32.1892 69.3757 32.027C68.9009 31.8324 68.3787 31.6703 67.8089 31.5405C67.2709 31.3784 66.7011 31.2 66.0997 31.0054C65.3084 30.7784 64.5171 30.5027 63.7258 30.1784C62.9345 29.8541 62.2223 29.4324 61.5892 28.9135C60.9878 28.3946 60.4972 27.7459 60.1174 26.9676C59.7376 26.1892 59.5477 25.2162 59.5477 24.0486C59.5477 22.5892 59.88 21.3568 60.5447 20.3514C61.2411 19.3135 62.2381 18.5189 63.5359 17.9676C64.8336 17.4162 66.4004 17.1405 68.2362 17.1405C68.8693 17.1405 69.4707 17.1892 70.0404 17.2865C70.6418 17.3838 71.2116 17.5297 71.7497 17.7243C72.3194 17.8865 72.8575 18.0973 73.3639 18.3568C73.902 18.6162 74.4085 18.9081 74.8833 19.2324C75.6746 19.6865 76.086 20.2216 76.1177 20.8378C76.1494 21.4216 75.9278 22.0541 75.453 22.7351C75.1048 23.1892 74.7566 23.5135 74.4085 23.7081C74.0603 23.8703 73.6963 23.8703 73.3165 23.7081C72.81 23.4486 72.2561 23.173 71.6547 22.8811C71.085 22.5568 70.4836 22.2811 69.8505 22.0541C69.2491 21.827 68.6161 21.7135 67.9514 21.7135C67.3183 21.7135 66.7486 21.8108 66.2421 22.0054C65.7357 22.2 65.3559 22.4757 65.1027 22.8324C64.8494 23.1892 64.7228 23.6108 64.7228 24.0973C64.7228 24.5514 64.8494 24.9243 65.1027 25.2162C65.3559 25.5081 65.6882 25.7514 66.0997 25.9459C66.5112 26.1405 67.0018 26.3189 67.5715 26.4811C68.1413 26.6108 68.7427 26.7405 69.3757 26.8703C70.262 27.0649 71.1641 27.3081 72.082 27.6C72.9999 27.8919 73.8387 28.2973 74.5984 28.8162C75.3897 29.3351 76.0227 30.0324 76.4975 30.9081C76.9723 31.7514 77.2097 32.8541 77.2097 34.2162C77.2097 36.5838 76.3551 38.4162 74.6459 39.7135C72.9683 41.0108 70.6418 41.6595 67.6665 41.6595Z" fill="white"/>
<path d="M102.705 41.2703C101.787 41.2703 101.107 41.0919 100.663 40.7351C100.22 40.3784 99.9987 39.8919 99.9987 39.2757L100.331 37.6703C100.078 38.0919 99.6505 38.5946 99.0491 39.1784C98.4477 39.7297 97.6564 40.2324 96.6752 40.6865C95.694 41.1081 94.507 41.3189 93.1143 41.3189C91.6266 41.3189 90.2181 41.0108 88.8887 40.3946C87.591 39.746 86.4356 38.8703 85.4228 37.7676C84.4415 36.6324 83.6502 35.3514 83.0488 33.9243C82.4791 32.4649 82.1942 30.9081 82.1942 29.2541C82.1942 27.6649 82.4791 26.173 83.0488 24.7784C83.6502 23.3514 84.4574 22.0865 85.4702 20.9838C86.4831 19.8811 87.6384 19.0216 88.9362 18.4054C90.2656 17.7568 91.6583 17.4324 93.1143 17.4324C94.412 17.4324 95.504 17.6108 96.3903 17.9676C97.3082 18.3243 98.0837 18.7784 98.7168 19.3297C99.3498 19.8486 99.8721 20.4 100.284 20.9838L99.9987 19.573C99.9987 18.8595 100.22 18.3243 100.663 17.9676C101.107 17.5784 101.803 17.3838 102.752 17.3838C103.639 17.3838 104.272 17.5297 104.652 17.8216C105.031 18.0811 105.269 18.4541 105.364 18.9405C105.459 19.3946 105.506 19.9135 105.506 20.4973V38.3027C105.506 38.8541 105.459 39.3568 105.364 39.8108C105.269 40.2649 105.016 40.6216 104.604 40.8811C104.224 41.1405 103.591 41.2703 102.705 41.2703ZM93.9689 35.627C95.0451 35.627 96.0105 35.3514 96.8651 34.8C97.7197 34.2487 98.4002 33.5027 98.9067 32.5622C99.4448 31.5892 99.7138 30.5189 99.7138 29.3514C99.7138 28.0865 99.4448 26.9838 98.9067 26.0432C98.3686 25.1027 97.6564 24.373 96.7702 23.8541C95.9155 23.3027 94.9501 23.027 93.874 23.027C92.7028 23.027 91.6583 23.3189 90.7404 23.9027C89.8225 24.4541 89.0944 25.2162 88.5563 26.1892C88.0499 27.1297 87.7967 28.2 87.7967 29.4C87.7967 30.5676 88.0657 31.6216 88.6038 32.5622C89.1419 33.5027 89.8699 34.2487 90.7878 34.8C91.7374 35.3514 92.7978 35.627 93.9689 35.627Z" fill="white"/>
<path d="M120.335 41.3676C119.164 41.3676 118.12 41.2865 117.202 41.1243C116.316 40.9622 115.54 40.6865 114.875 40.2973C114.242 39.9081 113.72 39.3892 113.309 38.7405C112.897 38.0595 112.581 37.2324 112.359 36.2595C112.169 35.2865 112.074 34.1189 112.074 32.7568V9.30811C112.074 8.75676 112.122 8.27027 112.217 7.84865C112.343 7.39459 112.596 7.03784 112.976 6.77838C113.388 6.48649 114.037 6.34054 114.923 6.34054C115.809 6.34054 116.442 6.47027 116.822 6.72973C117.234 6.98919 117.487 7.34595 117.582 7.8C117.708 8.22162 117.772 8.70811 117.772 9.25946V32.5135C117.772 33.1297 117.803 33.6487 117.867 34.0703C117.962 34.4595 118.104 34.7838 118.294 35.0432C118.515 35.2703 118.785 35.4324 119.101 35.5297C119.449 35.627 119.861 35.6757 120.335 35.6757C120.747 35.6757 121.111 35.7243 121.427 35.8216C121.776 35.9189 122.045 36.1622 122.235 36.5514C122.456 36.9405 122.567 37.573 122.567 38.4486C122.567 39.3568 122.456 40.0216 122.235 40.4432C122.045 40.8649 121.776 41.1243 121.427 41.2216C121.079 41.3189 120.715 41.3676 120.335 41.3676Z" fill="white"/>
<path d="M138.805 41.6595C137.286 41.6595 135.798 41.3676 134.342 40.7838C132.918 40.1676 131.62 39.3081 130.449 38.2054C129.31 37.1027 128.392 35.8054 127.695 34.3135C127.031 32.8216 126.698 31.1838 126.698 29.4C126.698 27.6811 127.015 26.0757 127.648 24.5838C128.281 23.0919 129.151 21.7784 130.259 20.6432C131.367 19.5081 132.633 18.6324 134.058 18.0162C135.514 17.3676 137.065 17.0432 138.71 17.0432C140.926 17.0432 142.936 17.5946 144.74 18.6973C146.544 19.7676 147.985 21.227 149.061 23.0757C150.137 24.9243 150.675 27.0162 150.675 29.3514C150.675 31.2 150.343 32.8865 149.678 34.4108C149.013 35.9027 148.111 37.2 146.972 38.3027C145.832 39.373 144.55 40.2 143.126 40.7838C141.733 41.3676 140.293 41.6595 138.805 41.6595ZM138.71 35.9189C139.755 35.9189 140.752 35.6595 141.702 35.1405C142.683 34.5892 143.474 33.8108 144.076 32.8054C144.709 31.8 145.025 30.6162 145.025 29.2541C145.025 27.9892 144.74 26.8703 144.17 25.8973C143.632 24.9243 142.889 24.1622 141.939 23.6108C140.989 23.0595 139.897 22.7838 138.663 22.7838C137.492 22.7838 136.431 23.0757 135.482 23.6595C134.532 24.2108 133.773 24.9892 133.203 25.9946C132.665 26.9676 132.396 28.0703 132.396 29.3027C132.396 30.6649 132.696 31.8486 133.298 32.8541C133.899 33.827 134.675 34.5892 135.624 35.1405C136.606 35.6595 137.634 35.9189 138.71 35.9189Z" fill="white"/>
<path d="M159.107 41.3189C158.252 41.3189 157.619 41.173 157.208 40.8811C156.828 40.6216 156.591 40.2811 156.496 39.8595C156.401 39.4054 156.353 38.9027 156.353 38.3514V20.1568C156.353 19.6378 156.401 19.1676 156.496 18.7459C156.591 18.3243 156.844 18 157.255 17.773C157.667 17.5135 158.3 17.3838 159.154 17.3838C159.914 17.3838 160.484 17.4811 160.864 17.6757C161.243 17.8703 161.497 18.1135 161.623 18.4054C161.75 18.6973 161.813 18.9892 161.813 19.2811C161.845 19.573 161.877 19.8 161.908 19.9622L161.718 21.5189C161.908 21 162.225 20.4973 162.668 20.0108C163.111 19.5243 163.649 19.0865 164.282 18.6973C164.915 18.2757 165.596 17.9514 166.324 17.7243C167.083 17.4649 167.859 17.3351 168.65 17.3351C170.138 17.3351 171.467 17.6108 172.638 18.1622C173.809 18.7135 174.807 19.4919 175.63 20.4973C176.484 21.5027 177.133 22.7027 177.576 24.0973C178.019 25.4595 178.241 27 178.241 28.7189V38.4C178.241 38.9514 178.178 39.4541 178.051 39.9081C177.956 40.3297 177.719 40.6703 177.339 40.9297C176.959 41.1892 176.31 41.3189 175.392 41.3189C174.506 41.3189 173.857 41.173 173.446 40.8811C173.034 40.6216 172.781 40.2811 172.686 39.8595C172.591 39.4054 172.543 38.9027 172.543 38.3514V28.6703C172.543 27.5027 172.338 26.4973 171.926 25.6541C171.546 24.8108 170.977 24.1622 170.217 23.7081C169.489 23.2541 168.555 23.027 167.416 23.027C166.308 23.027 165.342 23.2703 164.52 23.7568C163.697 24.2108 163.063 24.8595 162.62 25.7027C162.177 26.5459 161.956 27.5351 161.956 28.6703V38.4C161.956 38.9514 161.908 39.4541 161.813 39.9081C161.718 40.3297 161.465 40.6703 161.054 40.9297C160.674 41.1892 160.025 41.3189 159.107 41.3189Z" fill="white"/>
<path d="M189.353 41.3676C188.498 41.3676 187.865 41.2378 187.454 40.9784C187.074 40.7189 186.836 40.3622 186.741 39.9081C186.646 39.4216 186.599 38.9189 186.599 38.4V14.7568C186.599 13.5568 186.757 12.4541 187.074 11.4486C187.39 10.4108 187.897 9.51892 188.593 8.77297C189.289 8.02703 190.191 7.44324 191.299 7.02162C192.407 6.56757 193.752 6.34054 195.335 6.34054C195.873 6.34054 196.348 6.4054 196.759 6.53513C197.202 6.63243 197.551 6.87568 197.804 7.26486C198.089 7.65405 198.231 8.31892 198.231 9.25946C198.231 10.1351 198.089 10.7838 197.804 11.2054C197.551 11.627 197.202 11.8865 196.759 11.9838C196.316 12.0811 195.826 12.1297 195.288 12.1297C194.749 12.1297 194.275 12.1622 193.863 12.227C193.483 12.2595 193.167 12.3568 192.914 12.5189C192.692 12.6811 192.518 12.9405 192.391 13.2973C192.296 13.6541 192.249 14.1081 192.249 14.6595V38.4973C192.249 39.0162 192.186 39.5027 192.059 39.9568C191.964 40.3784 191.711 40.7189 191.299 40.9784C190.888 41.2378 190.239 41.3676 189.353 41.3676ZM184.652 17.8703L189.543 17.9189L196.095 17.7243C196.633 17.7243 197.108 17.7892 197.519 17.9189C197.962 18.0162 198.31 18.2757 198.564 18.6973C198.817 19.0865 198.943 19.7351 198.943 20.6432C198.943 21.4865 198.817 22.1189 198.564 22.5405C198.31 22.9622 197.978 23.2378 197.566 23.3676C197.155 23.4649 196.68 23.5135 196.142 23.5135L189.78 23.4162L184.51 23.4649C183.719 23.4324 183.165 23.2054 182.848 22.7838C182.563 22.3297 182.421 21.6 182.421 20.5946C182.421 19.6541 182.595 18.973 182.943 18.5514C183.323 18.0973 183.893 17.8703 184.652 17.8703Z" fill="white"/>
<path d="M212.503 41.3676C211.332 41.3676 210.288 41.2865 209.37 41.1243C208.483 40.9622 207.708 40.6865 207.043 40.2973C206.41 39.9081 205.888 39.3892 205.476 38.7405C205.065 38.0595 204.748 37.2324 204.527 36.2595C204.337 35.2865 204.242 34.1189 204.242 32.7568V9.30811C204.242 8.75676 204.29 8.27027 204.385 7.84865C204.511 7.39459 204.764 7.03784 205.144 6.77838C205.556 6.48649 206.204 6.34054 207.091 6.34054C207.977 6.34054 208.61 6.47027 208.99 6.72973C209.401 6.98919 209.655 7.34595 209.75 7.8C209.876 8.22162 209.939 8.70811 209.939 9.25946V32.5135C209.939 33.1297 209.971 33.6487 210.034 34.0703C210.129 34.4595 210.272 34.7838 210.462 35.0432C210.683 35.2703 210.952 35.4324 211.269 35.5297C211.617 35.627 212.029 35.6757 212.503 35.6757C212.915 35.6757 213.279 35.7243 213.595 35.8216C213.944 35.9189 214.213 36.1622 214.402 36.5514C214.624 36.9405 214.735 37.573 214.735 38.4486C214.735 39.3568 214.624 40.0216 214.402 40.4432C214.213 40.8649 213.944 41.1243 213.595 41.2216C213.247 41.3189 212.883 41.3676 212.503 41.3676Z" fill="white"/>
<path d="M230.973 41.6595C229.454 41.6595 227.966 41.3676 226.51 40.7838C225.086 40.1676 223.788 39.3081 222.617 38.2054C221.478 37.1027 220.56 35.8054 219.863 34.3135C219.199 32.8216 218.866 31.1838 218.866 29.4C218.866 27.6811 219.183 26.0757 219.816 24.5838C220.449 23.0919 221.319 21.7784 222.427 20.6432C223.535 19.5081 224.801 18.6324 226.225 18.0162C227.681 17.3676 229.232 17.0432 230.878 17.0432C233.094 17.0432 235.104 17.5946 236.908 18.6973C238.712 19.7676 240.152 21.227 241.229 23.0757C242.305 24.9243 242.843 27.0162 242.843 29.3514C242.843 31.2 242.511 32.8865 241.846 34.4108C241.181 35.9027 240.279 37.2 239.14 38.3027C238 39.373 236.718 40.2 235.294 40.7838C233.901 41.3676 232.461 41.6595 230.973 41.6595ZM230.878 35.9189C231.923 35.9189 232.92 35.6595 233.869 35.1405C234.851 34.5892 235.642 33.8108 236.243 32.8054C236.876 31.8 237.193 30.6162 237.193 29.2541C237.193 27.9892 236.908 26.8703 236.338 25.8973C235.8 24.9243 235.056 24.1622 234.107 23.6108C233.157 23.0595 232.065 22.7838 230.831 22.7838C229.66 22.7838 228.599 23.0757 227.65 23.6595C226.7 24.2108 225.941 24.9892 225.371 25.9946C224.833 26.9676 224.564 28.0703 224.564 29.3027C224.564 30.6649 224.864 31.8486 225.466 32.8541C226.067 33.827 226.843 34.5892 227.792 35.1405C228.773 35.6595 229.802 35.9189 230.878 35.9189Z" fill="white"/>
<path d="M256.092 41.3189C255.459 41.3189 254.953 41.1892 254.573 40.9297C254.225 40.7027 253.956 40.4108 253.766 40.0541C253.608 39.6973 253.465 39.373 253.339 39.0811L246.359 20.9838C246.169 20.3676 246.074 19.8486 246.074 19.427C246.106 19.0054 246.264 18.6486 246.549 18.3568C246.866 18.0324 247.325 17.7568 247.926 17.5297C248.939 17.1081 249.73 16.9946 250.3 17.1892C250.901 17.3838 251.345 17.9351 251.629 18.8432L256.14 31.1027L260.223 19.3784C260.318 19.0865 260.46 18.7784 260.65 18.4541C260.84 18.1297 261.109 17.8541 261.457 17.627C261.837 17.3676 262.344 17.2378 262.977 17.2378C263.641 17.2378 264.164 17.3676 264.544 17.627C264.923 17.8541 265.208 18.1297 265.398 18.4541C265.62 18.7784 265.762 19.0865 265.826 19.3784L269.909 31.2L274.229 19.2811C274.609 18.2757 275.084 17.6108 275.654 17.2865C276.223 16.9622 276.999 16.9946 277.98 17.3838C278.866 17.773 279.468 18.2595 279.784 18.8432C280.101 19.3946 280.069 20.1243 279.689 21.0324L272.662 39.0811C272.536 39.4054 272.378 39.7459 272.188 40.1027C272.029 40.427 271.76 40.7027 271.381 40.9297C271.032 41.1892 270.558 41.3189 269.956 41.3189C269.323 41.3189 268.817 41.2054 268.437 40.9784C268.089 40.7838 267.82 40.5081 267.63 40.1514C267.44 39.7946 267.282 39.4216 267.155 39.0324L263.024 27.0162L258.894 39.0324C258.704 39.4865 258.53 39.8919 258.371 40.2487C258.213 40.6054 257.96 40.8649 257.612 41.027C257.264 41.2216 256.757 41.3189 256.092 41.3189Z" fill="white"/>
</svg>
